<?xml version="1.0" encoding="utf-8"?>
<!-- Generator: Adobe Illustrator 18.0.0, SVG Export Plug-In . SVG Version: 6.00 Build 0)  -->
<!DOCTYPE svg PUBLIC "-//W3C//DTD SVG 1.1//EN" "http://www.w3.org/Graphics/SVG/1.1/DTD/svg11.dtd">
<svg version="1.1" id="Layer_1" xmlns="http://www.w3.org/2000/svg" xmlns:xlink="http://www.w3.org/1999/xlink" x="0px" y="0px"
	 viewBox="0 0 1408 1408" enable-background="new 0 0 1408 1408" xml:space="preserve">
<g>
	<path fill="#FFFFFF" d="M621.6,268.1c-85.7,0-169.3,23.7-241.8,68.5c-7.9,4.9-10.4,15.3-5.5,23.3c0.9,1.4,2,2.7,3.2,3.7
		c0.6,0.8,1.4,1.6,2.3,2.2l75.1,59.4c3.2,3.2,7.5,5,12,5c2.5,0,5-0.5,7.4-1.7c46-22.7,95.6-34.2,147.3-34.2
		c49,0,96.2,10.4,140.2,30.8c4,1.9,8.3,2,12.1,0.8c0,0,0.1,0,0.1,0c2.6-0.5,5.1-1.7,7.3-3.6l66.4-55.9c1.1,0.7,2.1,1.2,3,1.8
		c0,0.7-0.1,1.5-0.1,2.2c0,19.1,15.5,34.6,34.6,34.6c19.1,0,34.6-15.5,34.6-34.6c0-19.1-15.5-34.6-34.6-34.6c-5.8,0-11.3,1.4-16.1,4
		c-1.5-0.9-3.1-1.8-5-2.9c-2.5-1.5-5.6-3.2-9.6-5.5c0,0-0.1,0-0.1,0c-0.5-0.3-0.9-0.5-1.4-0.7c-1.1-0.5-2.2-0.9-3.3-1.2
		c-0.6-0.2-1.3-0.3-1.9-0.3c-0.6-0.1-1.3-0.1-1.9-0.1c-0.6,0-1.3,0-1.9,0.1c-0.8,0.1-1.6,0.3-2.4,0.4c-0.7,0.2-1.4,0.5-2,0.7
		c0,0,0,0-0.1,0c0,0-0.1,0-0.2,0.1c-0.2,0-0.4,0.1-0.6,0.3c-0.2,0.1-0.3,0.2-0.6,0.3c-0.4,0.2-0.7,0.4-1.1,0.6
		c-0.7,0.4-1.4,0.9-2.1,1.5l-0.9,0.8l-67.3,56.6h0c-45.9-19.8-94.7-29.8-145.2-29.8c-53.3,0-104.5,11.1-152.4,33l-50.8-40.2
		c62.1-33.7,131.8-51.4,203.1-51.4c46.9,0,92.9,7.6,136.9,22.5c2.9,1,5.9,1.1,8.7,0.6c3.3-0.3,6.6-1.6,9.2-4l69.6-60.5
		c24.3,12.2,60.7,33.9,83,48.9c2.9,1.9,6.2,2.9,9.4,2.9c3.8,0,7.5-1.2,10.5-3.6c0.8-0.4,1.5-0.9,2.2-1.4l142.5-113.5
		c4,1.7,8.4,2.6,13,2.6c19.1,0,34.6-15.5,34.6-34.6c0-19.1-15.5-34.6-34.6-34.6c-19.1,0-34.6,15.5-34.6,34.6c0,1.9,0.2,3.8,0.5,5.6
		L937.6,274.6c-26.2-16.9-62.9-38.4-85.6-48.8c-0.9-0.4-1.9-0.8-2.8-1c0,0,0,0-0.1,0c-5.6-2.2-12.3-1.2-17.1,3l-71,61.8
		C716,275.4,669.2,268.1,621.6,268.1z M885.3,357c3.9,0,7.4,1.6,9.8,4.3c2.3,2.4,3.7,5.6,3.7,9.2c0,7.4-6,13.4-13.5,13.4H885
		c-7.2-0.2-13.1-6.2-13.1-13.4C871.9,363,877.9,357,885.3,357z M1106.4,148.1c7.4,0,13.5,6,13.5,13.5c0,7.4-6,13.4-13.5,13.4
		c-7.4,0-13.4-6-13.4-13.4C1093,154.1,1099,148.1,1106.4,148.1z"/>
	<path fill="#FFFFFF" d="M240.3,385.7c19.1,0,34.6-15.5,34.6-34.6c0-2.7-0.3-5.4-0.9-8c95.4-86.5,217.5-133.6,347.6-133.6
		c24.9,0,49.7,1.7,74.1,5.2c4.9,13.2,17.5,22.5,32.4,22.5c19.1,0,34.6-15.5,34.6-34.6c0-19.1-15.5-34.6-34.6-34.6
		c-11.1,0-20.9,5.2-27.2,13.3c-26.2-3.8-52.7-5.7-79.3-5.7c-138.7,0-268.8,50.3-370.5,142.5c-3.4-1.1-7-1.7-10.8-1.7
		c-19.1,0-34.6,15.5-34.6,34.6C205.7,370.2,221.2,385.7,240.3,385.7z M728.1,189.2c7.4,0,13.4,6,13.4,13.4c0,7.4-6,13.5-13.4,13.5
		c-7.4,0-13.5-6-13.5-13.5C714.6,195.2,720.7,189.2,728.1,189.2z M240.3,337.6c7.4,0,13.5,6,13.5,13.5c0,7.4-6,13.4-13.5,13.4
		c-7.4,0-13.4-6-13.4-13.4C226.8,343.7,232.9,337.6,240.3,337.6z"/>
	<path fill="#FFFFFF" d="M162,754.6c0,0.8,0.1,1.5,0.1,2.4c0,5.3,0.6,9.2,1.1,13c0.1,0.7,0.2,1.6,0.3,2.7
		c1.4,14.4,3.4,28.9,6.2,43.1c0,0.3,0.1,0.5,0.2,0.8c1.9,7.9,19,78.4,31.2,102.9c3,5.9,8.9,9.3,15.1,9.3c2.5,0,5.1-0.5,7.6-1.8
		c8.3-4.2,11.7-14.3,7.5-22.7c-8.8-17.7-23.5-74.4-28.5-95.3c-2.5-13-4.4-26.3-5.7-39.5c0-0.2,0-0.3,0-0.5h57.3
		c9.3,0,16.9-7.6,16.9-16.9c0-9.3-7.6-16.9-16.9-16.9H179c-9.3,0-16.9,7.6-16.9,16.9L162,754.6z"/>
	<path fill="#FFFFFF" d="M314.4,385.6c-19.1,0-34.6,15.6-34.6,34.6s15.6,34.6,34.6,34.6c4.7,0,9.2-0.9,13.2-2.6l116.5,92.2
		c3.1,2.5,6.8,3.6,10.5,3.6c2.1,0,4.1-0.4,6-1.2c0.8-0.3,1.5-0.6,2.2-1c0.3-0.2,0.5-0.3,0.8-0.5c0.6-0.3,1.2-0.8,1.8-1.3
		c0.1-0.1,0.2-0.2,0.3-0.3c43.4-36.7,98.7-56.9,155.7-56.9c60,0,109.7,17.6,151.9,53.8c4,3.4,9,4.6,13.8,3.8h0c0,0,0,0,0.1,0h0.4
		c3.7,0,7.4-1.2,10.5-3.7L1035.3,352c4.1,1.6,8.5,2.6,13.1,2.6c19.1,0,34.6-15.5,34.6-34.6c0-19.1-15.5-34.6-34.6-34.6
		c-19.1,0-34.6,15.5-34.6,34.6c0,1.9,0.2,3.8,0.5,5.7L786.1,507.3c-46.5-36.5-100.5-54.3-164.6-54.3c-60.4,0-119.2,20-166.9,56.5
		l-106-83.8c0.3-1.8,0.4-3.6,0.4-5.5C349,401.1,333.5,385.6,314.4,385.6z M314.4,433.7c-7.4,0-13.5-6-13.5-13.5
		c0-7.4,6-13.5,13.5-13.5c7.4,0,13.5,6,13.5,13.5C327.9,427.6,321.8,433.7,314.4,433.7z M1048.4,306.5c7.4,0,13.4,6,13.4,13.4
		c0,7.4-6,13.5-13.4,13.5c-7.4,0-13.5-6-13.5-13.5C1034.9,312.5,1040.9,306.5,1048.4,306.5z"/>
	<path fill="#FFFFFF" d="M388.3,1172.5c-7.9,0-15.1,2.7-21,7.1c-24.4-13.2-38.2-22.6-38.4-22.7c-32.3-22.1-61.9-47.7-88.4-76.4
		c1-3.3,1.6-6.7,1.6-10.3c0-19.1-15.5-34.6-34.6-34.6c-19.1,0-34.6,15.5-34.6,34.6c0,19.1,15.5,34.6,34.6,34.6
		c2.9,0,5.8-0.4,8.5-1.1c28.1,30.4,59.5,57.5,93.8,81c0.9,0.6,16.6,11.4,44.1,26c1.8,17.3,16.6,31,34.5,31
		c19.1,0,34.6-15.5,34.6-34.6C422.9,1188,407.3,1172.5,388.3,1172.5z M207.5,1083.6c-7.4,0-13.5-6-13.5-13.4c0-7.4,6-13.5,13.5-13.5
		c7.4,0,13.4,6,13.4,13.5C220.9,1077.6,214.9,1083.6,207.5,1083.6z M388.3,1220.5c-7.4,0-13.5-6-13.5-13.4c0-7.4,6-13.5,13.5-13.5
		c7.4,0,13.5,6,13.5,13.5C401.8,1214.5,395.7,1220.5,388.3,1220.5z"/>
	<path fill="#FFFFFF" d="M1157.3,686.9c-19.1,0-34.6,15.6-34.6,34.6c0,12.8,6.9,23.9,17.2,29.9c-12.1,275.4-240,495.7-518.3,495.7
		c-47.6,0-94.6-6.4-140-19.1l21.3-72.8c0.1-0.2,0.1-0.5,0.2-0.7c0.1-0.6,0.3-1.1,0.3-1.7c0-0.2,0-0.3,0-0.5c0.1-0.6,0.1-1.3,0.1-1.9
		c0-1.1-0.1-2.2-0.3-3.2c-0.1-0.6-0.2-1.1-0.4-1.7c-0.1-0.2-0.1-0.4-0.2-0.6c-0.4-1.3-1.1-2.6-1.8-3.7c-0.3-0.4-0.5-0.8-0.8-1.1
		c-0.3-0.4-0.6-0.7-0.9-1.1c-0.3-0.3-0.6-0.7-1-1c-1-1-2.2-1.8-3.4-2.5c-0.4-0.2-0.8-0.4-1.2-0.6c-0.5-0.2-0.9-0.4-1.4-0.5
		c-0.2-0.1-0.5-0.2-0.7-0.3c-0.3-0.1-0.5-0.1-0.7-0.2c-0.2-0.1-0.3-0.1-0.5-0.1c-34-8.6-81.7-36.3-82.3-36.6
		c-33.2-19.2-63.6-42.9-90.6-70.4c-20.1-20.5-38.2-43-53.8-67.1c-0.1-0.1-0.2-0.3-0.3-0.4c-0.2-0.4-0.5-0.8-0.8-1.1
		c-0.1-0.2-0.3-0.4-0.5-0.5c-0.4-0.5-0.8-0.9-1.3-1.3c-0.5-0.5-1.1-0.9-1.6-1.3c-0.5-0.4-1.1-0.8-1.7-1.1c-1.9-1-4-1.6-6.1-1.9
		c-0.6-0.1-1.2-0.1-1.9-0.1c-1.2,0-2.4,0.1-3.6,0.4c-0.6,0.1-1.2,0.3-1.8,0.5c-0.6,0.2-1.2,0.4-1.8,0.7l-70.6,32.8
		c-41.6-76-64.3-197.4-66.4-287.8h207.9l78,44.3c2.5,1.4,5.4,2.2,8.3,2.2h189.1c0.3,0,0.7,0,1,0c5.9,10.6,17.3,17.8,30.2,17.8
		c19.1,0,34.6-15.5,34.6-34.6c0-19.1-15.5-34.6-34.6-34.6c-13,0-24.3,7.2-30.2,17.8c-0.3,0-0.7,0-1,0H403.9l-78-44.3
		c-2.5-1.4-5.4-2.2-8.4-2.2H88c-9.3,0-16.9,7.6-16.9,16.9c0,0.5,0,1,0.1,1.4c-0.1,0.5-0.1,0.9-0.1,1.4c0,97.3,24.3,242.2,77.7,330.1
		c1.3,2.1,3,3.8,4.9,5.1l0,0c3.2,3.2,7.4,4.9,11.8,4.9c2.4,0,4.8-0.5,7.1-1.6l70.6-32.7c14.9,21.4,31.6,41.6,49.9,60.2
		c29.1,29.6,61.9,55.1,97.7,75.9c1.8,1.1,39.6,23,74.8,35.3l-20.1,68.5c-0.6,2-0.8,4.1-0.6,6.1c0,0,0,0.1,0,0.1
		c-1.6,8.4,3.2,16.7,11.5,19.4c53.2,16.6,108.7,25.1,165,25.1c296.8,0,539.7-235.2,552.2-529c10.9-5.8,18.2-17.3,18.2-30.5
		C1191.9,702.5,1176.4,686.9,1157.3,686.9z M619.7,714.8c7.4,0,13.4,6,13.4,13.5c0,7.4-6,13.5-13.4,13.5c-7.4,0-13.5-6-13.5-13.5
		C606.3,720.9,612.3,714.8,619.7,714.8z M1157.3,735.1c-7.4,0-13.4-6-13.4-13.5c0-7.4,6-13.5,13.4-13.5c7.4,0,13.5,6,13.5,13.5
		C1170.8,729,1164.8,735.1,1157.3,735.1z"/>
	<path fill="#FFFFFF" d="M1261.5,338.6c-19.1,0-34.6,15.5-34.6,34.6c0,1.9,0.2,3.8,0.4,5.6l-131.8,105.1c-6,4.8-7.9,12.7-5.1,19.4
		c0.1,0.4,0.3,0.8,0.5,1.3c0,0.1,0.1,0.3,0.1,0.4c10.2,23.6,24.2,61.6,32,89.6l-72.3,58.1c-1.9,1.5-3.3,3.3-4.4,5.4
		c-0.2,0.2-0.3,0.4-0.3,0.6c-1.8,3.1-2.5,6.8-2,10.6c2.7,19.5,4.1,39.4,4.1,59.2c0,224.2-175.1,411.1-398.9,425.5
		c-0.1,0-9.7,0.7-23,0.1l17.8-55.6v0c21.6-3.2,57-10.9,61.9-11.9c79.4-18.6,151.4-64.1,202.7-128c52.1-64.9,80.8-146.6,80.8-230
		c0-26.6-2.9-53.2-8.5-79l69-55.6c4.3-3.5,6.5-8.7,6.2-13.9v-0.7c0-1.9-0.3-3.8-0.9-5.7c-2.3-6.4-4.7-12.8-7.3-19.1
		c3.5-5.4,5.6-11.9,5.6-18.8c0-19.1-15.6-34.6-34.6-34.6c-19.1,0-34.6,15.5-34.6,34.6c0,18.7,15,34,33.6,34.5c0.6,1.5,1.2,3,1.8,4.5
		v0L952.1,629c-1,0.8-1.9,1.8-2.7,2.8c-3.6,4.1-5.3,9.8-3.9,15.5c6.6,26.4,9.9,53.7,9.9,81.1c0,155.9-105.8,289.6-257.1,325
		c-20.6,4.5-56.4,11.7-67.4,12.5h-0.4c-0.1,0-0.2,0-0.3,0c-0.5,0-1.1,0.1-1.6,0.2c-0.6,0.1-1.1,0.2-1.6,0.3
		c-0.5,0.1-0.9,0.3-1.4,0.4c-0.1,0-0.2,0-0.3,0.1c-0.5,0.2-0.9,0.4-1.4,0.6c-0.5,0.2-1,0.5-1.4,0.7c-0.5,0.3-0.9,0.5-1.4,0.9
		c-0.4,0.3-0.8,0.6-1.2,1c-0.4,0.3-0.8,0.7-1.1,1.1c-0.3,0.3-0.7,0.7-1,1.1c-0.4,0.4-0.7,0.9-1,1.4c-0.3,0.4-0.6,0.9-0.8,1.4
		c-0.4,0.8-0.8,1.7-1.1,2.6l-0.1,0.3l-27.3,85.2l-0.2,0.5c-0.1,0.4-0.3,0.8-0.3,1.3c-0.3,1.3-0.5,2.6-0.5,3.8c0,0.5,0,1,0.1,1.5
		c0,0.5,0.1,1,0.2,1.5c0.1,0.5,0.2,1,0.3,1.5c0,0.2,0.1,0.5,0.2,0.7c0.1,0.4,0.3,0.7,0.4,1.1c1.1,2.6,2.7,4.9,5,6.8
		c0.3,0.3,0.7,0.6,1.1,0.8c0.3,0.2,0.5,0.3,0.8,0.5c0.4,0.3,0.7,0.5,1.1,0.6c0.8,0.4,1.7,0.8,2.6,1.1c0.4,0.1,0.8,0.3,1.3,0.4
		c0.5,0.1,1,0.2,1.4,0.3c0.5,0.1,0.9,0.1,1.3,0.2c13.1,1.9,25.3,2.3,34.3,2.3c8.8,0,14.4-0.5,14.8-0.5
		c241.3-15.5,430.3-217.2,430.3-459.3c0-18.3-1.1-36.7-3.3-54.8l73.8-59.3c4.4-3.5,6.6-8.8,6.3-14c0.1-1.6-0.1-3.2-0.5-4.8
		c-6.7-27.4-20.4-65.8-31.6-93.1l121.9-97.1c4,1.7,8.4,2.6,13,2.6c19.1,0,34.6-15.5,34.6-34.6
		C1296.1,354.2,1280.6,338.6,1261.5,338.6z M1018.7,549c-5.8,0-10.8-3.7-12.6-8.8c-0.5-1.4-0.8-3-0.8-4.6c0-7.4,6-13.5,13.5-13.5
		c1.6,0,3.1,0.3,4.5,0.8c5.2,1.9,9,6.9,9,12.7C1032.2,543,1026.1,549,1018.7,549z M1261.5,386.7c-7.4,0-13.4-6-13.4-13.5
		c0-7.4,6-13.4,13.4-13.4c7.4,0,13.5,6,13.5,13.4C1275,380.7,1268.9,386.7,1261.5,386.7z"/>
	<path fill="#FFFFFF" d="M589.5,829.4c5.9,10.6,17.3,17.8,30.2,17.8c19.1,0,34.6-15.5,34.6-34.6c0-19.1-15.5-34.6-34.6-34.6
		c-13,0-24.3,7.2-30.2,17.8c-0.3,0-0.7,0-1,0H280.9c-0.7,0-1.3,0-2,0.1c-0.7,0.1-1.4,0.2-2,0.4c-0.5,0.1-1,0.3-1.4,0.4
		c-0.6,0.2-1.3,0.4-1.9,0.8c-0.7,0.3-1.4,0.7-2,1.1c-0.8,0.5-1.5,1.1-2.2,1.7c-0.3,0.3-0.6,0.6-0.8,0.8c-0.5,0.5-1,1.1-1.4,1.7
		c-0.2,0.2-0.4,0.5-0.5,0.7c-0.2,0.3-0.3,0.5-0.5,0.8c-0.3,0.5-0.6,1.1-0.9,1.7c-0.2,0.4-0.3,0.8-0.4,1.2c-0.1,0.3-0.2,0.6-0.3,0.9
		c-0.4,1.4-0.6,3-0.6,4.5c0,0.6,0,1.3,0.1,2c0,0.2,0,0.3,0.1,0.5c0,0.5,0.2,1.1,0.3,1.6c0,0.3,0.2,0.7,0.3,1
		c28,112.6,108.2,205.1,213.9,249.8c2.8,16.3,17,28.8,34.1,28.8c19.1,0,34.6-15.5,34.6-34.6c0-19.1-15.5-34.6-34.6-34.6
		c-8.7,0-16.7,3.2-22.7,8.5c-88.8-38.1-157.5-113.5-186.8-206h285.3C588.8,829.4,589.2,829.4,589.5,829.4z M619.7,799
		c7.4,0,13.4,6,13.4,13.5s-6,13.5-13.4,13.5c-7.4,0-13.5-6-13.5-13.5S612.3,799,619.7,799z M512.8,1048c7.4,0,13.4,6,13.4,13.4
		c0,7.4-6,13.5-13.4,13.5c-7.4,0-13.5-6-13.5-13.5C499.3,1054,505.3,1048,512.8,1048z"/>
	<path fill="#FFFFFF" d="M1302.3,195c-19.1,0-34.6,15.5-34.6,34.6c0,1.9,0.2,3.8,0.5,5.6L833,581.9c-7.2,5.7-8.5,16.2-2.9,23.5l0,0
		c0.1,0.3,0.2,0.6,0.4,0.8c20.9,36.5,32.4,79.8,32.4,122.1c0,133.1-108.3,241.4-241.4,241.4c-57.1,0-111.7-20.1-154.8-56.2h59.5v0.1
		H643c43,0,78-35,78-78v-60.7h0v-14.3c0-0.7,0-1.3-0.1-1.9c10.6-5.9,17.8-17.3,17.8-30.3c0-19.1-15.6-34.6-34.6-34.6
		c-19.1,0-34.6,15.6-34.6,34.6c0,13,7.2,24.4,17.8,30.3c-0.1,0.6-0.1,1.3-0.1,1.9v28.8h0v46.3c0,24.4-19.8,44.2-44.2,44.2H537.7
		v-0.1H432c-1.1,0-2,0-3.2,0c-4.9,0-10.1,0.6-14.2,4.1c-7.1,6.1-7.9,16.7-1.8,23.8c52.4,61,128.5,95.9,208.8,95.9
		c151.8,0,275.3-123.5,275.3-275.3c0-44.2-11.1-89.6-31.5-128.9l423.9-337.8c4,1.7,8.4,2.6,13,2.6c19.1,0,34.6-15.5,34.6-34.6
		C1336.9,210.5,1321.3,195,1302.3,195z M704.1,714.8c7.4,0,13.5,6,13.5,13.5c0,7.4-6,13.5-13.5,13.5c-7.4,0-13.5-6-13.5-13.5
		C690.6,720.9,696.7,714.8,704.1,714.8z M1302.3,243c-7.4,0-13.5-6-13.5-13.5c0-7.4,6-13.4,13.5-13.4c7.4,0,13.5,6,13.5,13.4
		C1315.8,237,1309.7,243,1302.3,243z"/>
</g>
</svg>
