<svg version="1.1" xmlns="http://www.w3.org/2000/svg" x="0" y="0" viewBox="0 0 682.9 177.6" xml:space="preserve"><g fill="#FFF"><path d="M57.4 31.7H16.1c-1.6 0-3 1.4-3 3.3 0 1.6 1.4 3 3 3h41.3c15.4 0 29.4 11 33.1 25.9l.9 3.7h-60C14 67.7 0 81.7 0 99c0 17.5 14 31.5 31.5 31.5h25.9c21.7 0 40.6-18 40.6-40.4v-18c0-22.4-18.9-40.4-40.6-40.4zm34.1 58.4c0 18.2-15.2 34.1-34.1 34.1H31.5c-14 0-25.2-11.2-25.2-25.2 0-13.8 11.2-25 25.2-25h60v16.1zM119.7 71.4c0-21.5 18.2-39.7 39.7-39.7h17.5c21.5 0 39.7 18.2 39.7 39.7v19.4c0 21.5-18.2 39.7-39.7 39.7h-17.5c-10.5 0-20.5-4.2-28-11.7l-5.4-5.4v61.2c0 1.6-1.4 3-3.3 3-1.6 0-3-1.4-3-3V71.4zm6.3 20.1c0 18 15.9 32.7 33.4 32.7h17.5c18.2 0 33.4-15.2 33.4-33.4V71.4c0-18.2-15.2-33.4-33.4-33.4h-17.5C141.2 38 126 53.2 126 71.4v20.1zM242.5 71.4c0-21.5 18.2-39.7 39.7-39.7h17.5c21.5 0 39.7 18.2 39.7 39.7v19.4c0 21.5-18.2 39.7-39.7 39.7h-17.5c-10.5 0-20.5-4.2-28-11.7l-5.4-5.4v61.2c0 1.6-1.4 3-3.3 3-1.6 0-3-1.4-3-3V71.4zm6.3 20.1c0 18 15.9 32.7 33.4 32.7h17.5c18.2 0 33.4-15.2 33.4-33.4V71.4c0-18.2-15.2-33.4-33.4-33.4h-17.5c-18.2 0-33.4 15.2-33.4 33.4v20.1zM468.9 127.2c0 1.9-1.4 3.3-3.3 3.3s-3.3-1.4-3.3-3.3v-8.9c0-18.4-15.4-34.1-34.1-34.1h-22.6c-18.2 0-34.1 15.4-34.1 34.1v8.9c0 1.9-1.4 3.3-3 3.3-1.9 0-3.3-1.4-3.3-3.3v-8.9c0-14 7.7-28.5 20.8-35.5l4.4-2.3-4.2-2.6c-11.4-7.9-18.7-20.1-18.7-34.1V35c0-1.9 1.4-3.3 3.3-3.3 1.6 0 3.3 1.4 3.3 3.3v8.9c0 18.7 15.4 34.1 34.1 34.1H426c18.9 0 34.1-15.9 34.1-34.1V35c0-1.9 1.4-3.3 3.3-3.3 1.6 0 3 1.4 3 3.3v8.9c0 13.8-7 26.6-18.7 34.1l-4 2.6 4.2 2.3c12.6 7 21 21 21 35.5v8.8zM498.3 9.6c0 2.3-1.9 4.2-4.2 4.2s-4.2-1.9-4.2-4.2c0-2.3 1.9-4.2 4.2-4.2s4.2 1.8 4.2 4.2zm-7.5 26.6c0-1.9 1.4-3.3 3.3-3.3 1.6 0 3 1.4 3 3.3v91.3c0 1.6-1.4 3-3 3-1.9 0-3.3-1.4-3.3-3V36.2zM527.7 39.9c0-21.9 18-39.9 39.9-39.9h8.9c1.6 0 3 1.4 3 3 0 1.9-1.4 3.3-3 3.3h-8.9c-18.4 0-33.6 14.9-33.6 33.6v48.5h40.1c1.9 0 3.3 1.4 3.3 3.3 0 1.6-1.4 3-3.3 3H534v32.7c0 1.6-1.4 3-3.3 3-1.6 0-3-1.4-3-3V39.9zM682.9 136.1c0 21.5-18.2 39.7-39.7 39.7h-8.9c-1.6 0-3-1.4-3-3 0-1.9 1.4-3.3 3-3.3h8.9c18.2 0 33.4-15.2 33.4-33.4v-42l-5.4 5.4c-7.5 7.5-17.5 11.7-28 11.7-21.5 0-39.7-18.2-39.7-39.7V34.8c0-1.6 1.4-3 3-3 1.9 0 3.3 1.4 3.3 3v36.6c0 18.2 15.2 33.4 33.4 33.4s33.4-15.2 33.4-33.4V34.5l.2-.2v-.5l.2-.5.2-.2.2-.5.5-.5.5-.2.5-.2h2l.2.2.5.2.2.2.2.2.2.2.2.5.2.2.2.2v102.5z"/></g></svg>