<?xml version="1.0" encoding="utf-8"?>
<!-- Generator: Adobe Illustrator 18.0.0, SVG Export Plug-In . SVG Version: 6.00 Build 0)  -->
<!DOCTYPE svg PUBLIC "-//W3C//DTD SVG 1.1//EN" "http://www.w3.org/Graphics/SVG/1.1/DTD/svg11.dtd">
<svg version="1.1" id="Layer_1" xmlns="http://www.w3.org/2000/svg" xmlns:xlink="http://www.w3.org/1999/xlink" x="0px" y="0px"
	 viewBox="0 0 512 512" enable-background="new 0 0 512 512" xml:space="preserve">
<g>
	<linearGradient id="SVGID_1_" gradientUnits="userSpaceOnUse" x1="392.9563" y1="-2.2337" x2="82.7613" y2="298.8199">
		<stop  offset="0" style="stop-color:#EE2829"/>
		<stop  offset="0.211" style="stop-color:#BD3655"/>
		<stop  offset="0.446" style="stop-color:#8C3E79"/>
		<stop  offset="0.6122" style="stop-color:#6A4190"/>
		<stop  offset="0.6927" style="stop-color:#5A429A"/>
	</linearGradient>
	<path fill="url(#SVGID_1_)" d="M231.8,111.8c-29.6,0-58.5,8.2-83.5,23.7c-2.7,1.7-3.6,5.3-1.9,8c0.3,0.5,0.7,0.9,1.1,1.3
		c0.2,0.3,0.5,0.5,0.8,0.8l25.9,20.5c1.1,1.1,2.6,1.7,4.1,1.7c0.9,0,1.7-0.2,2.6-0.6c15.9-7.8,33-11.8,50.9-11.8
		c16.9,0,33.2,3.6,48.4,10.6c1.4,0.6,2.9,0.7,4.2,0.3c0,0,0,0,0,0c0.9-0.2,1.8-0.6,2.5-1.2l22.9-19.3c0.4,0.2,0.7,0.4,1.1,0.6
		c0,0.2,0,0.5,0,0.8c0,6.6,5.4,11.9,11.9,11.9c6.6,0,12-5.4,12-11.9c0-6.6-5.4-12-12-12c-2,0-3.9,0.5-5.6,1.4
		c-0.5-0.3-1.1-0.6-1.7-1c-0.9-0.5-1.9-1.1-3.3-1.9c0,0,0,0,0,0c-0.2-0.1-0.3-0.2-0.5-0.2c-0.4-0.2-0.8-0.3-1.2-0.4
		c-0.2-0.1-0.4-0.1-0.7-0.1c-0.2,0-0.5,0-0.7,0c-0.2,0-0.4,0-0.7,0c-0.3,0-0.6,0.1-0.8,0.1c-0.2,0.1-0.5,0.2-0.7,0.2c0,0,0,0,0,0
		c0,0,0,0-0.1,0c-0.1,0-0.1,0-0.2,0.1c-0.1,0-0.1,0.1-0.2,0.1c-0.1,0.1-0.2,0.1-0.4,0.2c-0.2,0.1-0.5,0.3-0.7,0.5l-0.3,0.3L282,154
		h0c-15.9-6.8-32.7-10.3-50.2-10.3c-18.4,0-36.1,3.8-52.6,11.4l-17.5-13.9c21.5-11.6,45.5-17.8,70.2-17.8c16.2,0,32.1,2.6,47.3,7.8
		c1,0.3,2,0.4,3,0.2c1.1-0.1,2.3-0.6,3.2-1.4l24-20.9c8.4,4.2,21,11.7,28.7,16.9c1,0.7,2.1,1,3.2,1c1.3,0,2.6-0.4,3.6-1.3
		c0.3-0.1,0.5-0.3,0.7-0.5L394.8,86c1.4,0.6,2.9,0.9,4.5,0.9c6.6,0,12-5.4,12-11.9c0-6.6-5.4-12-12-12c-6.6,0-11.9,5.4-11.9,12
		c0,0.7,0.1,1.3,0.2,1.9L340.9,114c-9-5.8-21.7-13.2-29.6-16.8c-0.3-0.1-0.6-0.3-1-0.3c0,0,0,0,0,0c-1.9-0.7-4.2-0.4-5.9,1.1
		l-24.5,21.3C264.4,114.3,248.2,111.8,231.8,111.8z M322.9,142.5c1.3,0,2.6,0.6,3.4,1.5c0.8,0.8,1.3,1.9,1.3,3.2
		c0,2.6-2.1,4.6-4.7,4.6h-0.1c-2.5-0.1-4.5-2.1-4.5-4.6C318.2,144.6,320.3,142.5,322.9,142.5z M399.3,70.3c2.6,0,4.7,2.1,4.7,4.7
		c0,2.6-2.1,4.6-4.7,4.6c-2.6,0-4.6-2.1-4.6-4.6C394.6,72.4,396.7,70.3,399.3,70.3z"/>
	<linearGradient id="SVGID_2_" gradientUnits="userSpaceOnUse" x1="350.2542" y1="-46.2324" x2="40.0592" y2="254.8212">
		<stop  offset="0" style="stop-color:#EE2829"/>
		<stop  offset="0.211" style="stop-color:#BD3655"/>
		<stop  offset="0.446" style="stop-color:#8C3E79"/>
		<stop  offset="0.6122" style="stop-color:#6A4190"/>
		<stop  offset="0.6927" style="stop-color:#5A429A"/>
	</linearGradient>
	<path fill="url(#SVGID_2_)" d="M100.1,152.4c6.6,0,12-5.4,12-11.9c0-0.9-0.1-1.9-0.3-2.8c33-29.9,75.1-46.2,120.1-46.2
		c8.6,0,17.2,0.6,25.6,1.8c1.7,4.5,6.1,7.8,11.2,7.8c6.6,0,11.9-5.4,11.9-12c0-6.6-5.4-11.9-11.9-11.9c-3.8,0-7.2,1.8-9.4,4.6
		c-9-1.3-18.2-2-27.4-2c-47.9,0-92.8,17.4-128,49.2c-1.2-0.4-2.4-0.6-3.7-0.6c-6.6,0-11.9,5.4-11.9,12
		C88.1,147,93.5,152.4,100.1,152.4z M268.6,84.5c2.6,0,4.6,2.1,4.6,4.6c0,2.6-2.1,4.7-4.6,4.7c-2.6,0-4.7-2.1-4.7-4.7
		C263.9,86.6,266,84.5,268.6,84.5z M100.1,135.8c2.6,0,4.7,2.1,4.7,4.7c0,2.6-2.1,4.6-4.7,4.6c-2.6,0-4.6-2.1-4.6-4.6
		C95.4,137.9,97.5,135.8,100.1,135.8z"/>
	<linearGradient id="SVGID_3_" gradientUnits="userSpaceOnUse" x1="398.0445" y1="3.0091" x2="87.8496" y2="304.0627">
		<stop  offset="0" style="stop-color:#EE2829"/>
		<stop  offset="0.211" style="stop-color:#BD3655"/>
		<stop  offset="0.446" style="stop-color:#8C3E79"/>
		<stop  offset="0.6122" style="stop-color:#6A4190"/>
		<stop  offset="0.6927" style="stop-color:#5A429A"/>
	</linearGradient>
	<path fill="url(#SVGID_3_)" d="M73,279.8c0,0.3,0,0.5,0,0.8c0,1.8,0.2,3.2,0.4,4.5c0,0.2,0.1,0.5,0.1,0.9c0.5,5,1.2,10,2.1,14.9
		c0,0.1,0,0.2,0.1,0.3c0.7,2.7,6.6,27.1,10.8,35.5c1,2,3.1,3.2,5.2,3.2c0.9,0,1.8-0.2,2.6-0.6c2.9-1.4,4-5,2.6-7.8
		c-3.1-6.1-8.1-25.7-9.8-32.9c-0.9-4.5-1.5-9.1-2-13.7c0-0.1,0-0.1,0-0.2H105c3.2,0,5.8-2.6,5.8-5.8c0-3.2-2.6-5.8-5.8-5.8H78.9
		c-3.2,0-5.8,2.6-5.8,5.8L73,279.8z"/>
	<linearGradient id="SVGID_4_" gradientUnits="userSpaceOnUse" x1="399.3747" y1="4.3797" x2="89.1798" y2="305.4333">
		<stop  offset="0" style="stop-color:#EE2829"/>
		<stop  offset="0.211" style="stop-color:#BD3655"/>
		<stop  offset="0.446" style="stop-color:#8C3E79"/>
		<stop  offset="0.6122" style="stop-color:#6A4190"/>
		<stop  offset="0.6927" style="stop-color:#5A429A"/>
	</linearGradient>
	<path fill="url(#SVGID_4_)" d="M125.7,152.3c-6.6,0-12,5.4-12,12s5.4,12,12,12c1.6,0,3.2-0.3,4.6-0.9l40.3,31.8
		c1.1,0.8,2.4,1.3,3.6,1.3c0.7,0,1.4-0.1,2.1-0.4c0.3-0.1,0.5-0.2,0.8-0.4c0.1-0.1,0.2-0.1,0.3-0.2c0.2-0.1,0.4-0.3,0.6-0.4
		c0,0,0.1-0.1,0.1-0.1c15-12.7,34.1-19.7,53.8-19.7c20.7,0,37.9,6.1,52.5,18.6c1.4,1.2,3.1,1.6,4.8,1.3h0c0,0,0,0,0,0h0.1
		c1.3,0,2.6-0.4,3.6-1.3l81.8-65.2c1.4,0.6,2.9,0.9,4.5,0.9c6.6,0,11.9-5.4,11.9-12c0-6.6-5.4-11.9-11.9-11.9c-6.6,0-12,5.4-12,11.9
		c0,0.7,0.1,1.3,0.2,2l-78.8,62.8c-16.1-12.6-34.7-18.7-56.8-18.7c-20.9,0-41.2,6.9-57.7,19.5l-36.6-28.9c0.1-0.6,0.1-1.3,0.1-1.9
		C137.7,157.7,132.3,152.3,125.7,152.3z M125.7,169c-2.6,0-4.7-2.1-4.7-4.7c0-2.6,2.1-4.7,4.7-4.7c2.6,0,4.7,2.1,4.7,4.7
		C130.4,166.9,128.3,169,125.7,169z M379.2,125c2.6,0,4.6,2.1,4.6,4.6c0,2.6-2.1,4.7-4.6,4.7c-2.6,0-4.7-2.1-4.7-4.7
		C374.5,127.1,376.6,125,379.2,125z"/>
	<linearGradient id="SVGID_5_" gradientUnits="userSpaceOnUse" x1="467.7887" y1="74.871" x2="157.5938" y2="375.9246">
		<stop  offset="0" style="stop-color:#EE2829"/>
		<stop  offset="0.211" style="stop-color:#BD3655"/>
		<stop  offset="0.446" style="stop-color:#8C3E79"/>
		<stop  offset="0.6122" style="stop-color:#6A4190"/>
		<stop  offset="0.6927" style="stop-color:#5A429A"/>
	</linearGradient>
	<path fill="url(#SVGID_5_)" d="M151.2,424.1c-2.7,0-5.2,0.9-7.2,2.5c-8.4-4.5-13.2-7.8-13.3-7.9c-11.2-7.6-21.4-16.5-30.5-26.4
		c0.4-1.1,0.5-2.3,0.5-3.5c0-6.6-5.4-12-11.9-12c-6.6,0-12,5.4-12,12c0,6.6,5.4,11.9,12,11.9c1,0,2-0.1,2.9-0.4
		c9.7,10.5,20.5,19.9,32.4,28c0.3,0.2,5.7,3.9,15.2,9c0.6,6,5.7,10.7,11.9,10.7c6.6,0,12-5.4,12-11.9
		C163.2,429.5,157.8,424.1,151.2,424.1z M88.8,393.4c-2.6,0-4.7-2.1-4.7-4.6c0-2.6,2.1-4.7,4.7-4.7c2.6,0,4.6,2.1,4.6,4.7
		C93.4,391.3,91.3,393.4,88.8,393.4z M151.2,440.7c-2.6,0-4.7-2.1-4.7-4.6c0-2.6,2.1-4.7,4.7-4.7c2.6,0,4.7,2.1,4.7,4.7
		C155.9,438.7,153.8,440.7,151.2,440.7z"/>
	<linearGradient id="SVGID_6_" gradientUnits="userSpaceOnUse" x1="466.8993" y1="73.9546" x2="156.7044" y2="375.0082">
		<stop  offset="0" style="stop-color:#EE2829"/>
		<stop  offset="0.211" style="stop-color:#BD3655"/>
		<stop  offset="0.446" style="stop-color:#8C3E79"/>
		<stop  offset="0.6122" style="stop-color:#6A4190"/>
		<stop  offset="0.6927" style="stop-color:#5A429A"/>
	</linearGradient>
	<path fill="url(#SVGID_6_)" d="M416.8,256.4c-6.6,0-11.9,5.4-11.9,12c0,4.4,2.4,8.3,5.9,10.3c-4.2,95.1-82.9,171.2-179,171.2
		c-16.4,0-32.7-2.2-48.3-6.6l7.4-25.1c0-0.1,0-0.2,0.1-0.2c0-0.2,0.1-0.4,0.1-0.6c0-0.1,0-0.1,0-0.2c0-0.2,0-0.4,0-0.7
		c0-0.4,0-0.7-0.1-1.1c0-0.2-0.1-0.4-0.1-0.6c0-0.1,0-0.1-0.1-0.2c-0.1-0.5-0.4-0.9-0.6-1.3c-0.1-0.1-0.2-0.3-0.3-0.4
		c-0.1-0.1-0.2-0.2-0.3-0.4c-0.1-0.1-0.2-0.2-0.3-0.3c-0.4-0.3-0.7-0.6-1.2-0.8c-0.1-0.1-0.3-0.1-0.4-0.2c-0.2-0.1-0.3-0.1-0.5-0.2
		c-0.1,0-0.2-0.1-0.2-0.1s-0.2,0-0.2-0.1c-0.1,0-0.1,0-0.2,0c-11.7-3-28.2-12.5-28.4-12.6c-11.5-6.6-22-14.8-31.3-24.3
		c-7-7.1-13.2-14.9-18.6-23.2c0,0-0.1-0.1-0.1-0.1c-0.1-0.1-0.2-0.3-0.3-0.4c0-0.1-0.1-0.1-0.2-0.2c-0.1-0.2-0.3-0.3-0.4-0.4
		c-0.2-0.2-0.4-0.3-0.6-0.5c-0.2-0.1-0.4-0.3-0.6-0.4c-0.7-0.4-1.4-0.6-2.1-0.6c-0.2,0-0.4,0-0.6,0c-0.4,0-0.8,0-1.2,0.1
		c-0.2,0-0.4,0.1-0.6,0.2c-0.2,0.1-0.4,0.1-0.6,0.2l-24.4,11.3c-14.4-26.2-22.2-68.2-22.9-99.4h71.8l26.9,15.3
		c0.9,0.5,1.9,0.8,2.9,0.8h65.3c0.1,0,0.2,0,0.4,0c2,3.7,6,6.1,10.4,6.1c6.6,0,11.9-5.4,11.9-12c0-6.6-5.4-12-11.9-12
		c-4.5,0-8.4,2.5-10.4,6.1c-0.1,0-0.2,0-0.4,0h-63.8l-26.9-15.3c-0.9-0.5-1.9-0.8-2.9-0.8H47.5c-3.2,0-5.8,2.6-5.8,5.8
		c0,0.2,0,0.3,0,0.5c0,0.2,0,0.3,0,0.5c0,33.6,8.4,83.7,26.8,114c0.4,0.7,1,1.3,1.7,1.8l0,0c1.1,1.1,2.6,1.7,4.1,1.7
		c0.8,0,1.7-0.2,2.5-0.5l24.4-11.3c5.1,7.4,10.9,14.4,17.2,20.8c10,10.2,21.4,19,33.8,26.2c0.6,0.4,13.7,8,25.9,12.2l-6.9,23.7
		c-0.2,0.7-0.3,1.4-0.2,2.1c0,0,0,0,0,0c-0.6,2.9,1.1,5.8,4,6.7c18.4,5.7,37.5,8.7,57,8.7c102.5,0,186.4-81.2,190.7-182.7
		c3.8-2,6.3-6,6.3-10.5C428.8,261.8,423.4,256.4,416.8,256.4z M231.2,266.1c2.6,0,4.6,2.1,4.6,4.7c0,2.6-2.1,4.7-4.6,4.7
		c-2.6,0-4.7-2.1-4.7-4.7C226.5,268.2,228.6,266.1,231.2,266.1z M416.8,273c-2.6,0-4.6-2.1-4.6-4.7s2.1-4.7,4.6-4.7
		c2.6,0,4.7,2.1,4.7,4.7S419.4,273,416.8,273z"/>
	<linearGradient id="SVGID_7_" gradientUnits="userSpaceOnUse" x1="518.9806" y1="127.6173" x2="208.7856" y2="428.6709">
		<stop  offset="0" style="stop-color:#EE2829"/>
		<stop  offset="0.211" style="stop-color:#BD3655"/>
		<stop  offset="0.446" style="stop-color:#8C3E79"/>
		<stop  offset="0.6122" style="stop-color:#6A4190"/>
		<stop  offset="0.6927" style="stop-color:#5A429A"/>
	</linearGradient>
	<path fill="url(#SVGID_7_)" d="M452.8,136.1c-6.6,0-11.9,5.4-11.9,11.9c0,0.7,0.1,1.3,0.1,1.9l-45.5,36.3c-2.1,1.7-2.7,4.4-1.8,6.7
		c0,0.1,0.1,0.3,0.2,0.4c0,0,0,0.1,0,0.1c3.5,8.1,8.4,21.3,11,30.9l-25,20.1c-0.6,0.5-1.2,1.2-1.5,1.9c-0.1,0.1-0.1,0.1-0.1,0.2
		c-0.6,1.1-0.9,2.3-0.7,3.7c0.9,6.7,1.4,13.6,1.4,20.4c0,77.5-60.5,142-137.8,147c0,0-3.4,0.2-7.9,0l6.1-19.2v0
		c7.4-1.1,19.7-3.8,21.4-4.1c27.4-6.4,52.3-22.1,70-44.2c18-22.4,27.9-50.6,27.9-79.5c0-9.2-1-18.4-3-27.3l23.8-19.2
		c1.5-1.2,2.2-3,2.1-4.8v-0.2c0-0.6-0.1-1.3-0.3-2c-0.8-2.2-1.6-4.4-2.5-6.6c1.2-1.9,1.9-4.1,1.9-6.5c0-6.6-5.4-12-12-12
		c-6.6,0-12,5.4-12,12c0,6.5,5.2,11.7,11.6,11.9c0.2,0.5,0.4,1.1,0.6,1.6v0L346,236.4c-0.4,0.3-0.7,0.6-0.9,1
		c-1.3,1.4-1.8,3.4-1.3,5.3c2.3,9.1,3.4,18.5,3.4,28c0,53.8-36.6,100-88.8,112.3c-7.1,1.5-19.5,4-23.3,4.3h-0.1c0,0-0.1,0-0.1,0
		c-0.2,0-0.4,0-0.6,0.1c-0.2,0-0.4,0.1-0.6,0.1c-0.2,0-0.3,0.1-0.5,0.1c0,0-0.1,0-0.1,0c-0.2,0.1-0.3,0.1-0.5,0.2
		c-0.2,0.1-0.3,0.2-0.5,0.2c-0.2,0.1-0.3,0.2-0.5,0.3c-0.1,0.1-0.3,0.2-0.4,0.3c-0.1,0.1-0.3,0.2-0.4,0.4c-0.1,0.1-0.2,0.2-0.3,0.4
		c-0.1,0.1-0.2,0.3-0.3,0.5c-0.1,0.1-0.2,0.3-0.3,0.5c-0.1,0.3-0.3,0.6-0.4,0.9l0,0.1l-9.4,29.4l-0.1,0.2c0,0.1-0.1,0.3-0.1,0.4
		c-0.1,0.5-0.2,0.9-0.2,1.3c0,0.2,0,0.4,0,0.5s0,0.4,0.1,0.5c0,0.2,0.1,0.4,0.1,0.5c0,0.1,0,0.2,0.1,0.2c0,0.1,0.1,0.2,0.1,0.4
		c0.4,0.9,0.9,1.7,1.7,2.3c0.1,0.1,0.2,0.2,0.4,0.3c0.1,0.1,0.2,0.1,0.3,0.2c0.1,0.1,0.2,0.2,0.4,0.2c0.3,0.1,0.6,0.3,0.9,0.4
		c0.1,0,0.3,0.1,0.5,0.1c0.2,0,0.3,0.1,0.5,0.1c0.2,0,0.3,0,0.5,0.1c4.5,0.6,8.7,0.8,11.8,0.8c3,0,5-0.2,5.1-0.2
		c83.3-5.3,148.6-75,148.6-158.6c0-6.3-0.4-12.7-1.1-18.9l25.5-20.5c1.5-1.2,2.3-3,2.2-4.8c0-0.5,0-1.1-0.2-1.7
		c-2.3-9.4-7.1-22.7-10.9-32.2l42.1-33.5c1.4,0.6,2.9,0.9,4.5,0.9c6.6,0,12-5.4,12-12C464.8,141.5,459.4,136.1,452.8,136.1z
		 M368.9,208.8c-2,0-3.7-1.3-4.4-3.1c-0.2-0.5-0.3-1-0.3-1.6c0-2.6,2.1-4.7,4.7-4.7c0.6,0,1.1,0.1,1.6,0.3c1.8,0.6,3.1,2.4,3.1,4.4
		C373.6,206.7,371.5,208.8,368.9,208.8z M452.8,152.7c-2.6,0-4.6-2.1-4.6-4.7c0-2.6,2.1-4.6,4.6-4.6c2.6,0,4.7,2.1,4.7,4.6
		C457.5,150.6,455.4,152.7,452.8,152.7z"/>
	<linearGradient id="SVGID_8_" gradientUnits="userSpaceOnUse" x1="451.6847" y1="58.278" x2="141.4897" y2="359.3316">
		<stop  offset="0" style="stop-color:#EE2829"/>
		<stop  offset="0.211" style="stop-color:#BD3655"/>
		<stop  offset="0.446" style="stop-color:#8C3E79"/>
		<stop  offset="0.6122" style="stop-color:#6A4190"/>
		<stop  offset="0.6927" style="stop-color:#5A429A"/>
	</linearGradient>
	<path fill="url(#SVGID_8_)" d="M220.7,305.6c2,3.7,6,6.1,10.4,6.1c6.6,0,11.9-5.4,11.9-12c0-6.6-5.4-12-11.9-12
		c-4.5,0-8.4,2.5-10.4,6.1c-0.1,0-0.2,0-0.4,0H114.1c-0.2,0-0.5,0-0.7,0c-0.2,0-0.5,0.1-0.7,0.1c-0.2,0-0.3,0.1-0.5,0.1
		c-0.2,0.1-0.4,0.1-0.6,0.3c-0.2,0.1-0.5,0.2-0.7,0.4c-0.3,0.2-0.5,0.4-0.8,0.6c-0.1,0.1-0.2,0.2-0.3,0.3c-0.2,0.2-0.3,0.4-0.5,0.6
		c-0.1,0.1-0.1,0.2-0.2,0.2c-0.1,0.1-0.1,0.2-0.2,0.3c-0.1,0.2-0.2,0.4-0.3,0.6c-0.1,0.1-0.1,0.3-0.1,0.4c0,0.1-0.1,0.2-0.1,0.3
		c-0.1,0.5-0.2,1-0.2,1.6c0,0.2,0,0.5,0,0.7c0,0.1,0,0.1,0,0.2c0,0.2,0.1,0.4,0.1,0.5c0,0.1,0.1,0.2,0.1,0.4
		c9.7,38.9,37.4,70.8,73.9,86.3c1,5.6,5.9,9.9,11.8,9.9c6.6,0,11.9-5.4,11.9-12c0-6.6-5.4-11.9-11.9-11.9c-3,0-5.8,1.1-7.9,3
		c-30.7-13.2-54.4-39.2-64.5-71.1h98.5C220.5,305.6,220.6,305.6,220.7,305.6z M231.2,295.1c2.6,0,4.6,2.1,4.6,4.7s-2.1,4.7-4.6,4.7
		c-2.6,0-4.7-2.1-4.7-4.7S228.6,295.1,231.2,295.1z M194.2,381.1c2.6,0,4.6,2.1,4.6,4.6c0,2.6-2.1,4.7-4.6,4.7
		c-2.6,0-4.7-2.1-4.7-4.7C189.5,383.2,191.6,381.1,194.2,381.1z"/>
	<linearGradient id="SVGID_9_" gradientUnits="userSpaceOnUse" x1="480.3647" y1="87.8289" x2="170.1698" y2="388.8825">
		<stop  offset="0" style="stop-color:#EE2829"/>
		<stop  offset="0.211" style="stop-color:#BD3655"/>
		<stop  offset="0.446" style="stop-color:#8C3E79"/>
		<stop  offset="0.6122" style="stop-color:#6A4190"/>
		<stop  offset="0.6927" style="stop-color:#5A429A"/>
	</linearGradient>
	<path fill="url(#SVGID_9_)" d="M466.9,86.5c-6.6,0-12,5.4-12,11.9c0,0.7,0.1,1.3,0.2,1.9L304.8,220.1c-2.5,2-2.9,5.6-1,8.1l0,0
		c0,0.1,0.1,0.2,0.1,0.3c7.2,12.6,11.2,27.6,11.2,42.2c0,46-37.4,83.4-83.4,83.4c-19.7,0-38.6-7-53.5-19.4h20.5v0h40.3
		c14.9,0,26.9-12.1,26.9-26.9v-21h0v-5c0-0.2,0-0.5,0-0.7c3.7-2,6.2-6,6.2-10.5c0-6.6-5.4-12-12-12c-6.6,0-12,5.4-12,12
		c0,4.5,2.5,8.4,6.2,10.5c0,0.2,0,0.4,0,0.7v9.9h0v16c0,8.4-6.8,15.3-15.3,15.3h-36.4v0h-36.5c-0.4,0-0.7,0-1.1,0
		c-1.7,0-3.5,0.2-4.9,1.4c-2.5,2.1-2.7,5.8-0.6,8.2c18.1,21.1,44.4,33.1,72.1,33.1c52.4,0,95.1-42.6,95.1-95.1
		c0-15.3-3.8-30.9-10.9-44.5l146.4-116.7c1.4,0.6,2.9,0.9,4.5,0.9c6.6,0,12-5.4,12-12C478.9,91.9,473.5,86.5,466.9,86.5z
		 M260.3,266.1c2.6,0,4.7,2.1,4.7,4.7c0,2.6-2.1,4.7-4.7,4.7c-2.6,0-4.7-2.1-4.7-4.7C255.6,268.2,257.7,266.1,260.3,266.1z
		 M466.9,103.1c-2.6,0-4.7-2.1-4.7-4.7c0-2.6,2.1-4.6,4.7-4.6c2.6,0,4.7,2.1,4.7,4.6C471.6,101,469.5,103.1,466.9,103.1z"/>
</g>
</svg>
