<?xml version="1.0" encoding="utf-8"?>
<!-- Generator: Adobe Illustrator 18.0.0, SVG Export Plug-In . SVG Version: 6.00 Build 0)  -->
<!DOCTYPE svg PUBLIC "-//W3C//DTD SVG 1.1//EN" "http://www.w3.org/Graphics/SVG/1.1/DTD/svg11.dtd">
<svg version="1.1" id="Layer_1" xmlns:serif="http://www.serif.com/"
	 xmlns="http://www.w3.org/2000/svg" xmlns:xlink="http://www.w3.org/1999/xlink" x="0px" y="0px" viewBox="0 0 500 500"
	 enable-background="new 0 0 500 500" xml:space="preserve">
<g transform="matrix(0.788803,0,0,0.788803,-61.067,-26.924)">
	<g transform="matrix(144,0,0,144,77.4173,211.321)">
		<path d="M0.3,1.4C0.1,1.4,0.1,1.3,0,1.2l0.1-0.1c0,0.1,0.1,0.1,0.1,0.1c0,0,0,0,0.1,0c0,0,0,0,0-0.1c0,0,0,0,0-0.1c0,0,0,0,0,0
			c0,0,0,0-0.1,0c0,0-0.1-0.1-0.1-0.1c0,0,0-0.1-0.1-0.1c0,0,0-0.1,0-0.1c0-0.1,0-0.1,0.1-0.1c0,0,0.1-0.1,0.2-0.1c0,0,0.1,0,0.1,0
			c0,0,0,0,0.1,0c0,0,0,0,0.1,0.1L0.4,0.8c0-0.1-0.1-0.1-0.1-0.1c0,0,0,0,0,0c0,0,0,0,0,0c0,0,0,0,0,0c0,0,0,0,0,0c0,0,0,0,0.1,0.1
			c0,0,0.1,0.1,0.1,0.1c0,0,0,0,0,0C0.5,1,0.5,1.1,0.5,1.2c0,0.1,0,0.1-0.1,0.2C0.4,1.4,0.3,1.4,0.3,1.4z"/>
	</g>
	<g transform="matrix(144,0,0,144,143.441,211.321)">
		<path d="M0.8,0.6L0.6,1.2L0.5,1l0.2-0.4H0.8z M0.3,0.6l0.3,0.8l0,0H0.4L0.1,0.6H0.3z"/>
	</g>
	<g transform="matrix(144,0,0,144,232.034,211.321)">
		<path d="M1,1C1,1,1,1,1,1C1,1,1,1,1,1C1,1,1,1,1,1.1c0,0,0,0.1,0,0.1c0,0,0,0.1-0.1,0.1c0,0-0.1,0-0.1,0.1c0,0-0.1,0-0.1,0
			c0,0-0.1,0-0.1,0s-0.1,0-0.1,0c0,0-0.1,0-0.1,0c0,0-0.1,0-0.1-0.1c0,0,0-0.1-0.1-0.1c0,0,0-0.1,0-0.1c0,0,0-0.1,0-0.1s0-0.1,0-0.1
			c0,0,0-0.1,0-0.1c0,0,0-0.1,0.1-0.1c0,0,0.1,0,0.1-0.1c0,0,0.1,0,0.1,0c0,0,0.1,0,0.1,0c0.1,0,0.1,0,0.2,0c0,0,0.1,0.1,0.1,0.1
			l0,0L0.8,0.8c0,0-0.1,0-0.1-0.1c0,0-0.1,0-0.1,0c0,0-0.1,0-0.1,0c0,0-0.1,0-0.1,0.1c0,0,0,0.1-0.1,0.1c0,0,0,0.1,0,0.1
			c0,0,0,0.1,0,0.1c0,0,0,0.1,0.1,0.1c0,0,0.1,0,0.1,0.1c0,0,0.1,0,0.1,0c0,0,0.1,0,0.1,0c0,0,0,0,0.1,0c0,0,0,0,0.1,0
			c0,0,0,0,0-0.1H0.6V1H1z"/>
	</g>
	<g transform="matrix(144,0,0,144,343.62,211.321)">
		<path d="M0.6,1.4H0.4V0.6h0.1c0,0,0,0,0.1,0c0,0,0,0,0.1,0c0,0,0,0,0.1,0c0,0,0,0,0,0c0,0,0.1,0,0.1,0.1c0,0,0,0.1,0,0.1
			c0,0,0,0.1,0,0.1c0,0,0,0.1-0.1,0.1C0.9,1,0.9,1,0.9,1.1c0,0,0,0.1,0,0.1c0,0-0.1,0.1-0.1,0.1C0.7,1.4,0.7,1.4,0.6,1.4z M0.6,1.2
			c0.1,0,0.1,0,0.1,0c0,0,0,0,0-0.1c0,0,0-0.1,0-0.1c0,0-0.1,0-0.1,0H0.5L0.6,1.2L0.6,1.2z M0.6,0.9C0.6,0.9,0.7,0.9,0.6,0.9
			c0.1,0,0.1-0.1,0.1-0.1c0,0,0,0,0-0.1c0,0,0,0-0.1,0H0.5L0.6,0.9L0.6,0.9z"/>
	</g>
	<g transform="matrix(144,0,0,144,417.238,211.321)">
		<path d="M0.9,1.2C0.9,1.2,0.9,1.2,0.9,1.2C1,1.2,1,1.2,1,1.2c0.1,0,0.1-0.1,0.1-0.2c0-0.1,0-0.1-0.1-0.2c0-0.1-0.1-0.1-0.2-0.1
			c-0.1,0-0.1,0-0.2,0.1c0,0.1-0.1,0.1-0.1,0.2c0,0.1,0,0.2,0.1,0.2C0.7,1.2,0.8,1.2,0.9,1.2z M0.9,1.4c-0.1,0-0.2,0-0.3-0.1
			C0.5,1.2,0.4,1.1,0.4,1c0-0.1,0-0.1,0.1-0.2c0-0.1,0.1-0.1,0.2-0.2c0.1,0,0.1-0.1,0.2-0.1c0.1,0,0.2,0,0.3,0.1
			C1.2,0.8,1.3,0.9,1.3,1c0,0.1,0,0.2-0.1,0.3C1.1,1.3,1,1.4,0.9,1.4z"/>
	</g>
	<g transform="matrix(144,0,0,144,512.159,211.321)">
		<path d="M1.3,1.4H1.1L0.9,1.1L0.8,1.4H0.6L0.9,1L0.6,0.6h0.2L1,1C1.1,1,1.1,1.1,1.2,1.2c0,0,0.1,0.1,0.1,0.1L1.3,1.4z M1.1,0.9
			L1,0.7l0.1-0.2h0.2L1.1,0.9z"/>
	</g>
</g>
</svg>
