<?xml version="1.0" encoding="utf-8"?>
<!-- Generator: Adobe Illustrator 18.0.0, SVG Export Plug-In . SVG Version: 6.00 Build 0)  -->
<!DOCTYPE svg PUBLIC "-//W3C//DTD SVG 1.1//EN" "http://www.w3.org/Graphics/SVG/1.1/DTD/svg11.dtd">
<svg version="1.1" id="Layer_1" xmlns="http://www.w3.org/2000/svg" xmlns:xlink="http://www.w3.org/1999/xlink" x="0px" y="0px"
	 viewBox="0 0 500 500" enable-background="new 0 0 500 500" xml:space="preserve">
<g>
	
		<image overflow="visible" opacity="0.75" width="500" height="416" xlink:href="FF02D1DF.png"  transform="matrix(1 0 0 1 -0.2175 95.2798)">
	</image>
	<g>
		<g>
			<g>
				
					<linearGradient id="SVGID_1_" gradientUnits="userSpaceOnUse" x1="77.4546" y1="141.3111" x2="23.0248" y2="88.4854" gradientTransform="matrix(0.9766 0 0 -0.9766 0 538.7227)">
					<stop  offset="0.6927" style="stop-color:#5A429A"/>
					<stop  offset="0.7458" style="stop-color:#5A429A"/>
				</linearGradient>
				<path fill="url(#SVGID_1_)" d="M57.3,393.7h-26h-2.1c-1.1,0-2.1,1-2.1,2.2c0,1.1,1,2.1,2.1,2.1h28c10.4,0,19.9,7.4,22.5,17.6
					l0.6,2.5H39.7c-11.9,0-21.4,9.5-21.4,21.2c0,11.9,9.5,21.4,21.4,21.4h17.6c14.7,0,27.5-12.2,27.5-27.3v-12.2
					C84.8,405.9,71.9,393.7,57.3,393.7z M80.3,433.2c0,12.3-10.3,23.1-23.1,23.1h-8.1h-9.5c-9.5,0-17.1-7.6-17.1-17.1
					c0-9.4,7.6-16.9,17.1-16.9h40.7V433.2z"/>
				
					<linearGradient id="SVGID_2_" gradientUnits="userSpaceOnUse" x1="161.6702" y1="139.6505" x2="85.3528" y2="65.5821" gradientTransform="matrix(0.9766 0 0 -0.9766 0 538.7227)">
					<stop  offset="0.6927" style="stop-color:#5A429A"/>
					<stop  offset="0.7458" style="stop-color:#5A429A"/>
				</linearGradient>
				<path fill="url(#SVGID_2_)" d="M99.5,420.5c0-14.6,12.3-27,27-27h11.9c14.6,0,27,12.3,27,27v13.2c0,14.6-12.3,27-27,27h-11.9
					c-7.1,0-14-2.8-18.9-7.9l-3.6-3.6v41.5c0,1.1-1,2.1-2.2,2.1c-1.1,0-2.1-1-2.1-2.1L99.5,420.5L99.5,420.5z M103.8,434.2
					c0,12.2,10.7,22.2,22.7,22.2h11.9c12.3,0,22.7-10.3,22.7-22.7v-13.2c0-12.3-10.3-22.7-22.7-22.7h-11.9
					c-12.3,0-22.7,10.3-22.7,22.7v9.2C103.8,429.7,103.8,434.2,103.8,434.2z"/>
				
					<linearGradient id="SVGID_3_" gradientUnits="userSpaceOnUse" x1="246.9834" y1="139.7118" x2="170.6653" y2="65.6427" gradientTransform="matrix(0.9766 0 0 -0.9766 0 538.7227)">
					<stop  offset="0.6927" style="stop-color:#5A429A"/>
					<stop  offset="0.7458" style="stop-color:#5A429A"/>
				</linearGradient>
				<path fill="url(#SVGID_3_)" d="M182.8,420.5c0-14.6,12.3-27,27-27h11.8c14.6,0,27,12.3,27,27v13.2c0,14.6-12.3,27-27,27h-11.9
					c-7.1,0-14-2.8-18.9-7.9l-3.6-3.6v41.5c0,1.1-1,2.1-2.2,2.1c-1.1,0-2.1-1-2.1-2.1V420.5z M187.1,434.2
					c0,12.2,10.7,22.2,22.7,22.2h11.8c12.3,0,22.7-10.3,22.7-22.7v-13.2c0-12.3-10.3-22.7-22.7-22.7h-11.9
					c-12.3,0-22.7,10.3-22.7,22.7v9.2L187.1,434.2L187.1,434.2z"/>
				<path fill="#484848" d="M336.3,458.4c0,1.3-1,2.2-2.2,2.2c-1.3,0-2.2-1-2.2-2.2v-6.1c0-12.5-10.4-23.1-23.1-23.1h-15.3
					c-12.3,0-23.1,10.4-23.1,23.1v6.1c0,1.3-1,2.2-2.1,2.2c-1.3,0-2.2-1-2.2-2.2v-6.1c0-9.5,5.2-19.3,14.1-24l3-1.6l-2.8-1.8
					c-7.7-5.4-12.7-13.6-12.7-23.1v-6.1c0-1.3,1-2.2,2.2-2.2c1.1,0,2.2,1,2.2,2.2v6.1c0,12.7,10.4,23.1,23.1,23.1h12
					c12.8,0,23.1-10.7,23.1-23.1v-6.1c0-1.3,1-2.2,2.2-2.2c1.1,0,2.1,1,2.1,2.2v6.1c0,9.4-4.8,18.1-12.7,23.1l-2.7,1.8l2.8,1.6
					c8.6,4.8,14.3,14.3,14.3,24L336.3,458.4L336.3,458.4z"/>
				<path fill="#484848" d="M356.2,378.6c0,1.6-1.3,2.8-2.8,2.8s-2.8-1.3-2.8-2.8s1.3-2.8,2.8-2.8S356.2,377.1,356.2,378.6z
					 M351.1,396.7c0-1.3,1-2.2,2.2-2.2c1.1,0,2.1,1,2.1,2.2v61.9c0,1.1-1,2.1-2.1,2.1c-1.3,0-2.2-1-2.2-2.1V396.7z"/>
				<path fill="#484848" d="M376.1,399.2c0-14.8,12.2-27.1,27.1-27.1h6.1c1.1,0,2.1,1,2.1,2.1c0,1.3-1,2.2-2.1,2.2h-6.1
					c-12.5,0-22.8,10.2-22.8,22.8v32.9h27.2c1.3,0,2.2,1,2.2,2.2c0,1.1-1,2.1-2.2,2.1h-27.2v22.2c0,1.1-1,2.1-2.2,2.1
					c-1.1,0-2.1-1-2.1-2.1v-51.5L376.1,399.2L376.1,399.2z"/>
				<path fill="#484848" d="M481.4,464.4c0,14.6-12.3,27-27,27h-6.1c-1.1,0-2.1-1-2.1-2.1c0-1.3,1-2.2,2.1-2.2h6.1
					c12.3,0,22.7-10.3,22.7-22.7v-28.5l-3.6,3.6c-5.1,5.1-11.9,7.9-18.9,7.9c-14.6,0-27-12.3-27-27v-24.8c0-1.1,1-2.1,2.1-2.1
					c1.3,0,2.2,1,2.2,2.1v24.8c0,12.3,10.3,22.7,22.7,22.7c12.3,0,22.7-10.3,22.7-22.7v-25l0.2-0.2v-0.3l0.2-0.3l0.2-0.2l0.2-0.3
					l0.3-0.3l0.3-0.2l0.3-0.2h0.3h0.3h0.3h0.3l0.2,0.2l0.3,0.2l0.2,0.2l0.2,0.2l0.2,0.2l0.2,0.3l0.2,0.2l0.2,0.2v0.3v0.3v68.7H481.4
					z"/>
			</g>
			<g>
				
					<linearGradient id="SVGID_4_" gradientUnits="userSpaceOnUse" x1="330.3439" y1="471.2889" x2="155.8494" y2="301.9367" gradientTransform="matrix(0.9766 0 0 -0.9766 0 538.7227)">
					<stop  offset="0" style="stop-color:#EE2829"/>
					<stop  offset="0.211" style="stop-color:#BD3655"/>
					<stop  offset="0.446" style="stop-color:#8C3E79"/>
					<stop  offset="0.6122" style="stop-color:#6A4190"/>
					<stop  offset="0.6927" style="stop-color:#5A429A"/>
				</linearGradient>
				<path fill="url(#SVGID_4_)" d="M234.2,141.3c-16.2,0-32.1,4.5-45.9,13c-1.5,1-2,2.9-1.1,4.4c0.2,0.3,0.4,0.5,0.6,0.7
					c0.1,0.2,0.3,0.3,0.4,0.4l14.3,11.2c0.6,0.6,1.5,1,2.2,1c0.5,0,1-0.1,1.4-0.3c8.7-4.3,18.2-6.4,27.9-6.4c9.3,0,18.3,2,26.6,5.9
					c0.8,0.4,1.6,0.4,2.3,0.1l0,0c0.5-0.1,1-0.3,1.4-0.7l12.6-10.6c0.2,0.1,0.4,0.2,0.6,0.3c0,0.1,0,0.3,0,0.4
					c0,3.6,2.9,6.5,6.5,6.5c3.6,0,6.5-2.9,6.5-6.5s-2.9-6.5-6.5-6.5c-1.1,0-2.1,0.3-3,0.8c-0.3-0.2-0.6-0.4-1-0.6
					c-0.5-0.3-1.1-0.6-1.9-1.1l0,0c-0.1-0.1-0.2-0.1-0.3-0.1c-0.2-0.1-0.4-0.2-0.6-0.2c-0.1,0-0.2-0.1-0.4-0.1c-0.1,0-0.3,0-0.4,0
					s-0.2,0-0.4,0c-0.2,0-0.3,0-0.5,0.1c-0.1,0-0.3,0.1-0.4,0.1l0,0l0,0h-0.1H275c-0.1,0-0.1,0.1-0.2,0.1c-0.1,0.1-0.3,0.2-0.4,0.3
					l-0.2,0.2l-12.8,10.7l0,0c-8.7-3.7-18-5.7-27.5-5.7c-10.2,0-19.8,2.1-28.9,6.3l-9.7-7.6c11.8-6.3,25-9.8,38.6-9.8
					c8.9,0,17.7,1.5,26,4.3c0.6,0.2,1.1,0.2,1.7,0.1c0.6-0.1,1.3-0.3,1.8-0.8l13.2-11.5c4.6,2.3,11.5,6.4,15.7,9.3
					c0.6,0.4,1.2,0.6,1.8,0.6c0.7,0,1.5-0.2,2-0.7c0.1-0.1,0.3-0.2,0.4-0.3l27.1-21.6c0.8,0.3,1.6,0.5,2.4,0.5
					c3.6,0,6.5-2.9,6.5-6.5c0-3.6-2.9-6.5-6.5-6.5c-3.6,0-6.5,2.9-6.5,6.5c0,0.4,0,0.7,0.1,1.1l-25.6,20.4c-5-3.2-11.9-7.3-16.2-9.3
					c-0.2-0.1-0.4-0.1-0.5-0.2l0,0c-1.1-0.4-2.3-0.2-3.2,0.6l-13.5,11.7C252.1,142.7,243.2,141.3,234.2,141.3z M284.2,158.1
					c0.8,0,1.4,0.3,1.9,0.8c0.4,0.5,0.7,1.1,0.7,1.8c0,1.4-1.2,2.5-2.5,2.5h-0.1c-1.4,0-2.4-1.2-2.4-2.5S282.9,158.1,284.2,158.1z
					 M326.2,118.5c1.4,0,2.5,1.2,2.5,2.5s-1.2,2.5-2.5,2.5c-1.4,0-2.5-1.2-2.5-2.5S324.9,118.5,326.2,118.5z"/>
				
					<linearGradient id="SVGID_5_" gradientUnits="userSpaceOnUse" x1="306.4303" y1="495.9286" x2="131.936" y2="326.5763" gradientTransform="matrix(0.9766 0 0 -0.9766 0 538.7227)">
					<stop  offset="0" style="stop-color:#EE2829"/>
					<stop  offset="0.211" style="stop-color:#BD3655"/>
					<stop  offset="0.446" style="stop-color:#8C3E79"/>
					<stop  offset="0.6122" style="stop-color:#6A4190"/>
					<stop  offset="0.6927" style="stop-color:#5A429A"/>
				</linearGradient>
				<path fill="url(#SVGID_5_)" d="M161.9,163.6c3.6,0,6.5-2.9,6.5-6.5c0-0.5-0.1-1.1-0.2-1.6c18.1-16.4,41.3-25.4,65.9-25.4
					c4.7,0,9.5,0.3,14.1,1c0.9,2.5,3.3,4.3,6.2,4.3c3.6,0,6.5-2.9,6.5-6.5c0-3.6-2.9-6.5-6.5-6.5c-2.1,0-4,1-5.2,2.5
					c-5-0.7-10-1.1-15-1.1c-26.3,0-51,9.6-70.3,27.1c-0.7-0.2-1.4-0.3-2.1-0.3c-3.6,0-6.5,2.9-6.5,6.5
					C155.3,160.6,158.3,163.6,161.9,163.6z M254.4,126.3c1.4,0,2.5,1.2,2.5,2.5c0,1.4-1.2,2.5-2.5,2.5c-1.4,0-2.5-1.2-2.5-2.5
					C251.9,127.4,253,126.3,254.4,126.3z M161.9,154.5c1.4,0,2.5,1.2,2.5,2.5s-1.2,2.5-2.5,2.5c-1.4,0-2.5-1.2-2.5-2.5
					C159.3,155.6,160.5,154.5,161.9,154.5z"/>
				
					<linearGradient id="SVGID_6_" gradientUnits="userSpaceOnUse" x1="333.384" y1="468.1566" x2="158.8895" y2="298.8044" gradientTransform="matrix(0.9766 0 0 -0.9766 0 538.7227)">
					<stop  offset="0" style="stop-color:#EE2829"/>
					<stop  offset="0.211" style="stop-color:#BD3655"/>
					<stop  offset="0.446" style="stop-color:#8C3E79"/>
					<stop  offset="0.6122" style="stop-color:#6A4190"/>
					<stop  offset="0.6927" style="stop-color:#5A429A"/>
				</linearGradient>
				<path fill="url(#SVGID_6_)" d="M147,233.6c0,0.2,0,0.3,0,0.5c0,1,0.1,1.8,0.2,2.4c0,0.1,0,0.3,0.1,0.5c0.3,2.7,0.7,5.5,1.2,8.2
					v0.1c0.4,1.5,3.6,14.8,6,19.5c0.6,1.2,1.7,1.8,2.8,1.8c0.5,0,1-0.1,1.5-0.3c1.6-0.8,2.2-2.7,1.5-4.3c-1.7-3.3-4.5-14.2-5.4-18.1
					c-0.5-2.4-0.9-5-1.1-7.5v-0.1h10.8c1.8,0,3.2-1.5,3.2-3.2s-1.5-3.2-3.2-3.2h-14.4c-1.8,0-3.2,1.5-3.2,3.2V233.6z"/>
				
					<linearGradient id="SVGID_7_" gradientUnits="userSpaceOnUse" x1="334.1272" y1="467.3907" x2="159.6328" y2="298.0386" gradientTransform="matrix(0.9766 0 0 -0.9766 0 538.7227)">
					<stop  offset="0" style="stop-color:#EE2829"/>
					<stop  offset="0.211" style="stop-color:#BD3655"/>
					<stop  offset="0.446" style="stop-color:#8C3E79"/>
					<stop  offset="0.6122" style="stop-color:#6A4190"/>
					<stop  offset="0.6927" style="stop-color:#5A429A"/>
				</linearGradient>
				<path fill="url(#SVGID_7_)" d="M175.9,163.6c-3.6,0-6.5,2.9-6.5,6.5s2.9,6.5,6.5,6.5c0.9,0,1.8-0.2,2.5-0.5l22.1,17.5
					c0.6,0.5,1.3,0.7,2,0.7c0.4,0,0.8-0.1,1.2-0.2c0.1-0.1,0.3-0.1,0.4-0.2c0.1,0,0.1-0.1,0.2-0.1c0.1-0.1,0.2-0.1,0.4-0.2
					c0,0,0,0,0.1,0c8.2-6.9,18.7-10.8,29.6-10.8c11.4,0,20.8,3.3,28.8,10.3c0.8,0.7,1.8,0.9,2.6,0.7l0,0l0,0h0.1
					c0.7,0,1.4-0.2,2-0.7l44.9-35.8c0.8,0.3,1.6,0.5,2.4,0.5c3.6,0,6.5-2.9,6.5-6.5s-2.9-6.5-6.5-6.5s-6.5,2.9-6.5,6.5
					c0,0.4,0,0.7,0.1,1.1l-43.3,34.4c-8.8-6.9-19-10.3-31.3-10.3c-11.4,0-22.7,3.8-31.6,10.7l-20.1-15.9c0-0.3,0.1-0.7,0.1-1.1
					C182.5,166.5,179.5,163.6,175.9,163.6z M175.9,172.7c-1.4,0-2.5-1.2-2.5-2.5s1.2-2.5,2.5-2.5c1.4,0,2.5,1.2,2.5,2.5
					C178.5,171.5,177.3,172.7,175.9,172.7z M315.2,148.5c1.4,0,2.5,1.2,2.5,2.5s-1.2,2.5-2.5,2.5s-2.5-1.2-2.5-2.5
					S313.8,148.5,315.2,148.5z"/>
				
					<linearGradient id="SVGID_8_" gradientUnits="userSpaceOnUse" x1="372.6334" y1="427.7153" x2="198.139" y2="258.3631" gradientTransform="matrix(0.9766 0 0 -0.9766 0 538.7227)">
					<stop  offset="0" style="stop-color:#EE2829"/>
					<stop  offset="0.211" style="stop-color:#BD3655"/>
					<stop  offset="0.446" style="stop-color:#8C3E79"/>
					<stop  offset="0.6122" style="stop-color:#6A4190"/>
					<stop  offset="0.6927" style="stop-color:#5A429A"/>
				</linearGradient>
				<path fill="url(#SVGID_8_)" d="M190,312.9c-1.5,0-2.8,0.5-4,1.4c-4.6-2.5-7.2-4.3-7.3-4.3c-6.2-4.2-11.7-9.1-16.8-14.5
					c0.2-0.6,0.3-1.3,0.3-2c0-3.6-2.9-6.5-6.5-6.5c-3.6,0-6.5,2.9-6.5,6.5c0,3.6,2.9,6.5,6.5,6.5c0.6,0,1.1-0.1,1.6-0.2
					c5.4,5.8,11.3,10.9,17.8,15.3c0.2,0.1,3.1,2.1,8.4,5c0.4,3.3,3.1,5.9,6.5,5.9c3.6,0,6.5-2.9,6.5-6.5
					C196.5,315.8,193.6,312.9,190,312.9z M155.6,296c-1.4,0-2.5-1.2-2.5-2.5c0-1.4,1.2-2.5,2.5-2.5s2.5,1.2,2.5,2.5
					C158.2,294.8,157.1,296,155.6,296z M190,322c-1.4,0-2.5-1.2-2.5-2.5s1.2-2.5,2.5-2.5s2.5,1.2,2.5,2.5
					C192.5,320.8,191.4,322,190,322z"/>
				
					<linearGradient id="SVGID_9_" gradientUnits="userSpaceOnUse" x1="372.3033" y1="428.0554" x2="197.8089" y2="258.7032" gradientTransform="matrix(0.9766 0 0 -0.9766 0 538.7227)">
					<stop  offset="0" style="stop-color:#EE2829"/>
					<stop  offset="0.211" style="stop-color:#BD3655"/>
					<stop  offset="0.446" style="stop-color:#8C3E79"/>
					<stop  offset="0.6122" style="stop-color:#6A4190"/>
					<stop  offset="0.6927" style="stop-color:#5A429A"/>
				</linearGradient>
				<path fill="url(#SVGID_9_)" d="M335.9,220.7c-3.6,0-6.5,2.9-6.5,6.5c0,2.4,1.3,4.5,3.2,5.7c-2.3,52.2-45.5,94-98.3,94
					c-9.1,0-18-1.2-26.6-3.6l4-13.8v-0.1c0-0.1,0-0.2,0.1-0.3v-0.1c0-0.1,0-0.2,0-0.4c0-0.2,0-0.4-0.1-0.6c0-0.1,0-0.2-0.1-0.3v-0.1
					c-0.1-0.3-0.2-0.5-0.4-0.7c0-0.1-0.1-0.1-0.2-0.2s-0.1-0.1-0.2-0.2s-0.1-0.1-0.2-0.2c-0.2-0.2-0.4-0.3-0.7-0.5
					c-0.1,0-0.2-0.1-0.2-0.1c-0.1,0-0.2-0.1-0.3-0.1h-0.1h-0.1h-0.1c-6.4-1.7-15.5-6.9-15.6-6.9c-6.3-3.6-12.1-8.1-17.2-13.4
					c-3.8-3.9-7.2-8.2-10.3-12.7c0,0,0,0-0.1-0.1c0-0.1-0.1-0.1-0.2-0.2l-0.1-0.1c-0.1-0.1-0.2-0.2-0.2-0.2
					c-0.1-0.1-0.2-0.2-0.3-0.3c-0.1-0.1-0.2-0.1-0.3-0.2c-0.4-0.2-0.8-0.3-1.2-0.4c-0.1,0-0.2,0-0.4,0s-0.5,0-0.7,0.1
					c-0.1,0-0.2,0.1-0.3,0.1c-0.1,0-0.2,0.1-0.3,0.1l-13.4,6.3c-7.9-14.5-12.2-37.5-12.6-54.6h39.6l14.8,8.4
					c0.5,0.3,1.1,0.4,1.6,0.4h35.8c0.1,0,0.1,0,0.2,0c1.2,2.1,3.3,3.4,5.8,3.4c3.6,0,6.5-2.9,6.5-6.5s-2.9-6.5-6.5-6.5
					c-2.4,0-4.6,1.4-5.8,3.4c-0.1,0-0.1,0-0.2,0h-35.1l-14.8-8.4c-0.5-0.3-1.1-0.4-1.6-0.4h-43.6c-1.8,0-3.2,1.5-3.2,3.2
					c0,0.1,0,0.2,0,0.3c0,0.1,0,0.2,0,0.3c0,18.5,4.6,46,14.7,62.6c0.2,0.4,0.6,0.7,1,1l0,0c0.6,0.6,1.4,1,2.2,1
					c0.5,0,0.9-0.1,1.4-0.3l13.4-6.3c2.8,4.1,6,7.9,9.5,11.4c5.6,5.7,11.7,10.4,18.6,14.4c0.4,0.2,7.5,4.4,14.2,6.7l-3.8,13
					c-0.1,0.4-0.2,0.8-0.1,1.2l0,0c-0.3,1.6,0.6,3.2,2.1,3.7c10.1,3.1,20.6,4.8,31.3,4.8c56.3,0,102.4-44.6,104.8-100.4
					c2.1-1.1,3.4-3.3,3.4-5.8C342.4,223.6,339.5,220.7,335.9,220.7z M233.8,226c1.4,0,2.5,1.2,2.5,2.5s-1.2,2.5-2.5,2.5
					s-2.5-1.2-2.5-2.5C231.3,227.2,232.5,226,233.8,226z M335.9,229.9c-1.4,0-2.5-1.2-2.5-2.5s1.2-2.5,2.5-2.5
					c1.4,0,2.5,1.2,2.5,2.5C338.4,228.7,337.3,229.9,335.9,229.9z"/>
				
					<linearGradient id="SVGID_10_" gradientUnits="userSpaceOnUse" x1="401.3687" y1="398.1074" x2="226.8743" y2="228.7553" gradientTransform="matrix(0.9766 0 0 -0.9766 0 538.7227)">
					<stop  offset="0" style="stop-color:#EE2829"/>
					<stop  offset="0.211" style="stop-color:#BD3655"/>
					<stop  offset="0.446" style="stop-color:#8C3E79"/>
					<stop  offset="0.6122" style="stop-color:#6A4190"/>
					<stop  offset="0.6927" style="stop-color:#5A429A"/>
				</linearGradient>
				<path fill="url(#SVGID_10_)" d="M355.6,154.7c-3.6,0-6.5,2.9-6.5,6.5c0,0.4,0,0.7,0.1,1.1l-25,19.9c-1.2,0.9-1.5,2.4-1,3.7
					c0,0.1,0.1,0.2,0.1,0.2s0,0,0,0.1c2,4.5,4.6,11.7,6.1,17l-13.8,11c-0.4,0.3-0.6,0.6-0.8,1c0,0,0,0.1-0.1,0.1
					c-0.3,0.6-0.5,1.3-0.4,2.1c0.5,3.7,0.8,7.4,0.8,11.2c0,42.6-33.2,78-75.7,80.8c0,0-1.9,0.1-4.4,0l3.4-10.5l0,0
					c4.1-0.6,10.8-2.1,11.7-2.2c15-3.5,28.7-12.1,38.5-24.3c9.9-12.3,15.3-27.8,15.3-43.7c0-5.1-0.6-10.1-1.7-15l13.1-10.5
					c0.8-0.7,1.3-1.7,1.2-2.6v-0.1c0-0.4,0-0.7-0.2-1.1c-0.4-1.2-0.9-2.4-1.4-3.6c0.7-1.1,1.1-2.2,1.1-3.6c0-3.6-2.9-6.5-6.5-6.5
					c-3.6,0-6.5,2.9-6.5,6.5c0,3.5,2.8,6.4,6.3,6.5c0.1,0.3,0.2,0.6,0.3,0.9l0,0l-12.7,10.4c-0.2,0.2-0.4,0.3-0.5,0.5
					c-0.7,0.8-1,1.9-0.8,2.9c1.3,5,1.9,10.2,1.9,15.4c0,29.6-20.1,55-48.8,61.7c-3.9,0.9-10.7,2.2-12.8,2.3h-0.1c0,0,0,0-0.1,0
					c-0.1,0-0.2,0-0.3,0c-0.1,0-0.2,0-0.3,0.1c-0.1,0-0.2,0-0.3,0.1l0,0c-0.1,0-0.2,0.1-0.3,0.1c-0.1,0-0.2,0.1-0.3,0.1
					c-0.1,0-0.2,0.1-0.3,0.2c-0.1,0.1-0.2,0.1-0.2,0.2c-0.1,0.1-0.1,0.1-0.2,0.2c-0.1,0.1-0.1,0.1-0.2,0.2c-0.1,0.1-0.1,0.2-0.2,0.3
					c-0.1,0.1-0.1,0.2-0.2,0.3c-0.1,0.2-0.2,0.3-0.2,0.5v0.1l-5.2,16.2v0.1c0,0.1,0,0.2-0.1,0.2c-0.1,0.3-0.1,0.5-0.1,0.7
					c0,0.1,0,0.2,0,0.3s0,0.2,0,0.3c0,0.1,0,0.2,0.1,0.3v0.1c0,0.1,0,0.1,0.1,0.2c0.2,0.5,0.5,1,1,1.3c0.1,0.1,0.1,0.1,0.2,0.2
					l0.1,0.1c0.1,0,0.1,0.1,0.2,0.1c0.2,0.1,0.3,0.1,0.5,0.2c0.1,0,0.2,0,0.3,0.1c0.1,0,0.2,0,0.3,0c0.1,0,0.2,0,0.3,0
					c2.4,0.4,4.8,0.5,6.5,0.5c1.7,0,2.7-0.1,2.8-0.1c45.8-2.9,81.6-41.2,81.6-87.1c0-3.4-0.2-6.9-0.6-10.4l14-11.2
					c0.8-0.7,1.3-1.7,1.2-2.6c0-0.3,0-0.6-0.1-0.9c-1.3-5.2-3.9-12.5-6-17.7l23.1-18.5c0.8,0.3,1.6,0.5,2.4,0.5
					c3.6,0,6.5-2.9,6.5-6.5C362.2,157.6,359.2,154.7,355.6,154.7z M309.5,194.5c-1.1,0-2.1-0.7-2.4-1.7c-0.1-0.3-0.2-0.6-0.2-0.9
					c0-1.4,1.2-2.5,2.5-2.5c0.3,0,0.6,0.1,0.9,0.2c1,0.4,1.7,1.3,1.7,2.4C312.2,193.5,311,194.5,309.5,194.5z M355.6,163.8
					c-1.4,0-2.5-1.2-2.5-2.5s1.2-2.5,2.5-2.5s2.5,1.2,2.5,2.5C358.2,162.6,357.1,163.8,355.6,163.8z"/>
				
					<linearGradient id="SVGID_11_" gradientUnits="userSpaceOnUse" x1="363.4814" y1="437.1452" x2="188.987" y2="267.793" gradientTransform="matrix(0.9766 0 0 -0.9766 0 538.7227)">
					<stop  offset="0" style="stop-color:#EE2829"/>
					<stop  offset="0.211" style="stop-color:#BD3655"/>
					<stop  offset="0.446" style="stop-color:#8C3E79"/>
					<stop  offset="0.6122" style="stop-color:#6A4190"/>
					<stop  offset="0.6927" style="stop-color:#5A429A"/>
				</linearGradient>
				<path fill="url(#SVGID_11_)" d="M228.2,247.8c1.2,2.1,3.3,3.4,5.8,3.4c3.6,0,6.5-2.9,6.5-6.5c0-3.6-2.9-6.5-6.5-6.5
					c-2.4,0-4.6,1.4-5.8,3.4c-0.1,0-0.1,0-0.2,0h-58.4c-0.1,0-0.3,0-0.4,0c-0.1,0-0.3,0-0.4,0.1c-0.1,0-0.2,0-0.3,0.1
					c-0.1,0-0.2,0.1-0.4,0.1c-0.1,0.1-0.3,0.1-0.4,0.2c-0.1,0.1-0.3,0.2-0.4,0.3c-0.1,0.1-0.1,0.1-0.2,0.2c-0.1,0.1-0.2,0.2-0.3,0.3
					l-0.1,0.1l-0.1,0.1c-0.1,0.1-0.1,0.2-0.2,0.3c0,0.1-0.1,0.1-0.1,0.2s0,0.1-0.1,0.2c-0.1,0.3-0.1,0.6-0.1,0.9c0,0.1,0,0.3,0,0.4
					v0.1c0,0.1,0,0.2,0.1,0.3c0,0.1,0,0.1,0,0.2c5.3,21.4,20.5,39,40.6,47.4c0.5,3.1,3.2,5.5,6.4,5.5c3.6,0,6.5-2.9,6.5-6.5
					s-2.9-6.5-6.5-6.5c-1.7,0-3.1,0.6-4.3,1.7c-16.8-7.2-29.9-21.6-35.4-39.1h54.1C228,247.8,228.1,247.8,228.2,247.8z M233.8,242
					c1.4,0,2.5,1.2,2.5,2.5c0,1.4-1.2,2.5-2.5,2.5s-2.5-1.2-2.5-2.5S232.5,242,233.8,242z M213.5,289.3c1.4,0,2.5,1.2,2.5,2.5
					s-1.2,2.5-2.5,2.5s-2.5-1.2-2.5-2.5C211,290.3,212.2,289.3,213.5,289.3z"/>
				
					<linearGradient id="SVGID_12_" gradientUnits="userSpaceOnUse" x1="379.7249" y1="420.4084" x2="205.2305" y2="251.0562" gradientTransform="matrix(0.9766 0 0 -0.9766 0 538.7227)">
					<stop  offset="0" style="stop-color:#EE2829"/>
					<stop  offset="0.211" style="stop-color:#BD3655"/>
					<stop  offset="0.446" style="stop-color:#8C3E79"/>
					<stop  offset="0.6122" style="stop-color:#6A4190"/>
					<stop  offset="0.6927" style="stop-color:#5A429A"/>
				</linearGradient>
				<path fill="url(#SVGID_12_)" d="M363.3,127.3c-3.6,0-6.5,2.9-6.5,6.5c0,0.4,0,0.7,0.1,1.1l-82.5,65.8c-1.4,1.1-1.6,3-0.6,4.5
					l0,0c0,0,0,0.1,0.1,0.2c4,6.9,6.2,15.1,6.2,23.1c0,25.3-20.5,45.8-45.8,45.8c-10.8,0-21.2-3.8-29.4-10.6h11.3l0,0h22.2
					c8.2,0,14.8-6.6,14.8-14.8v-11.5l0,0v-2.7c0-0.1,0-0.3,0-0.4c2.1-1.2,3.4-3.3,3.4-5.8c0-3.6-2.9-6.5-6.5-6.5
					c-3.6,0-6.5,2.9-6.5,6.5c0,2.4,1.4,4.6,3.4,5.8c0,0.1,0,0.2,0,0.4v5.5l0,0v8.8c0,4.6-3.8,8.4-8.4,8.4h-20l0,0h-20.1
					c-0.2,0-0.4,0-0.6,0c-0.9,0-2,0.1-2.7,0.8c-1.4,1.2-1.5,3.2-0.4,4.5c10,11.5,24.4,18.2,39.6,18.2c28.8,0,52.2-23.4,52.2-52.2
					c0-8.4-2.1-17-6-24.5l80.5-64.1c0.8,0.3,1.6,0.5,2.4,0.5c3.6,0,6.5-2.9,6.5-6.5C370,130.3,366.9,127.3,363.3,127.3z M249.9,226
					c1.4,0,2.5,1.2,2.5,2.5s-1.2,2.5-2.5,2.5c-1.4,0-2.5-1.2-2.5-2.5C247.3,227.2,248.5,226,249.9,226z M363.3,136.5
					c-1.4,0-2.5-1.2-2.5-2.5s1.2-2.5,2.5-2.5c1.4,0,2.5,1.2,2.5,2.5C366,135.4,364.8,136.5,363.3,136.5z"/>
			</g>
		</g>
	</g>
</g>
</svg>
