<?xml version="1.0" encoding="utf-8"?>
<!-- Generator: Adobe Illustrator 18.0.0, SVG Export Plug-In . SVG Version: 6.00 Build 0)  -->
<!DOCTYPE svg PUBLIC "-//W3C//DTD SVG 1.1//EN" "http://www.w3.org/Graphics/SVG/1.1/DTD/svg11.dtd">
<svg version="1.1" id="Layer_1" xmlns:svgjs="http://svgjs.com/svgjs"
	 xmlns="http://www.w3.org/2000/svg" xmlns:xlink="http://www.w3.org/1999/xlink" x="0px" y="0px" viewBox="0 0 500 500"
	 enable-background="new 0 0 500 500" xml:space="preserve">
<g>
	<g id="Page-1">
		<g id="_x30_03---Call" transform="translate(-1)">
			<path id="Shape" fill="#580DBF" d="M224,277c-30-30-36.7-59.9-38.3-71.9c-0.4-3.3,0.7-6.6,3.1-9l24.2-24.2
				c3.6-3.6,4.2-9.1,1.5-13.4l-38.6-60c-2.9-4.7-9-6.4-14-3.9L100,123.7c-4,2-6.4,6.3-5.9,10.7c3.3,30.8,16.7,106.7,91.3,181.3
				s150.4,88,181.3,91.3c4.5,0.4,8.8-1.9,10.7-5.9l29.2-62c2.5-5,0.8-11-3.9-14l-60-38.6c-4.3-2.7-9.8-2-13.4,1.5L305,312.1
				c-2.3,2.4-5.7,3.5-9,3.1C284,313.7,254,307,224,277L224,277z"/>
			<path id="Shape_1_" fill="#580DBF" d="M343.1,260.9c-6,0-10.9-4.8-10.9-10.9c-0.1-44.8-36.4-81.1-81.2-81.2
				c-6,0-10.9-4.8-10.9-10.9s4.8-10.9,10.9-10.9c56.8,0.1,102.8,46.1,102.8,102.8C353.8,256,349,260.9,343.1,260.9z"/>
			<path id="Shape_2_" fill="#580DBF" d="M397.1,260.9c-6,0-10.9-4.8-10.9-10.9c0-74.7-60.6-135.3-135.3-135.4
				c-6,0-10.9-4.8-10.9-10.9c0-6,4.8-10.8,10.9-10.8c86.7,0.1,156.9,70.3,157,157c0,2.9-1.2,5.6-3.2,7.7
				C402.8,259.7,400,260.9,397.1,260.9z"/>
		</g>
	</g>
</g>
</svg>
