<?xml version="1.0" encoding="utf-8"?>
<!-- Generator: Adobe Illustrator 18.0.0, SVG Export Plug-In . SVG Version: 6.00 Build 0)  -->
<!DOCTYPE svg PUBLIC "-//W3C//DTD SVG 1.1//EN" "http://www.w3.org/Graphics/SVG/1.1/DTD/svg11.dtd">
<svg version="1.1" id="Layer_1" xmlns="http://www.w3.org/2000/svg" xmlns:xlink="http://www.w3.org/1999/xlink" x="0px" y="0px"
	 viewBox="0 0 512 512" enable-background="new 0 0 512 512" xml:space="preserve">
<g>
	<g>
		<linearGradient id="SVGID_1_" gradientUnits="userSpaceOnUse" x1="77.5693" y1="355.4859" x2="23.1637" y2="408.2881">
			<stop  offset="0.6927" style="stop-color:#5A429A"/>
			<stop  offset="0.7458" style="stop-color:#5A429A"/>
		</linearGradient>
		<path fill="url(#SVGID_1_)" d="M58.8,348.3H32.2h-2.1c-1.1,0-2.1,1-2.1,2.3c0,1.1,1,2.1,2.1,2.1h28.7c10.7,0,20.4,7.6,23,18
			l0.6,2.6H40.8c-12.2,0-21.9,9.7-21.9,21.7c0,12.2,9.7,21.9,21.9,21.9h18c15.1,0,28.2-12.5,28.2-28v-12.5
			C87,360.8,73.8,348.3,58.8,348.3z M82.4,388.8c0,12.6-10.5,23.7-23.7,23.7h-8.3h-9.7c-9.7,0-17.5-7.8-17.5-17.5
			c0-9.6,7.8-17.3,17.5-17.3h41.7V388.8z"/>
		<linearGradient id="SVGID_2_" gradientUnits="userSpaceOnUse" x1="161.8089" y1="357.1878" x2="85.4915" y2="431.2562">
			<stop  offset="0.6927" style="stop-color:#5A429A"/>
			<stop  offset="0.7458" style="stop-color:#5A429A"/>
		</linearGradient>
		<path fill="url(#SVGID_2_)" d="M102,375.8c0-14.9,12.6-27.6,27.6-27.6h12.2c14.9,0,27.6,12.6,27.6,27.6v13.5
			c0,14.9-12.6,27.6-27.6,27.6h-12.2c-7.3,0-14.3-2.9-19.4-8.1l-3.7-3.7v42.5c0,1.1-1,2.1-2.3,2.1c-1.1,0-2.1-1-2.1-2.1V375.8z
			 M106.4,389.8c0,12.5,11,22.7,23.2,22.7h12.2c12.6,0,23.2-10.5,23.2-23.2v-13.5c0-12.6-10.5-23.2-23.2-23.2h-12.2
			c-12.6,0-23.2,10.5-23.2,23.2v9.4V389.8z"/>
		<linearGradient id="SVGID_3_" gradientUnits="userSpaceOnUse" x1="247.0576" y1="357.1875" x2="170.7395" y2="431.2566">
			<stop  offset="0.6927" style="stop-color:#5A429A"/>
			<stop  offset="0.7458" style="stop-color:#5A429A"/>
		</linearGradient>
		<path fill="url(#SVGID_3_)" d="M187.3,375.8c0-14.9,12.6-27.6,27.6-27.6H227c14.9,0,27.6,12.6,27.6,27.6v13.5
			c0,14.9-12.6,27.6-27.6,27.6h-12.2c-7.3,0-14.3-2.9-19.4-8.1l-3.7-3.7v42.5c0,1.1-1,2.1-2.3,2.1c-1.1,0-2.1-1-2.1-2.1V375.8z
			 M191.7,389.8c0,12.5,11,22.7,23.2,22.7H227c12.6,0,23.2-10.5,23.2-23.2v-13.5c0-12.6-10.5-23.2-23.2-23.2h-12.2
			c-12.6,0-23.2,10.5-23.2,23.2v9.4V389.8z"/>
		<path fill="#484848" d="M344.5,414.6c0,1.3-1,2.3-2.3,2.3c-1.3,0-2.3-1-2.3-2.3v-6.2c0-12.8-10.7-23.7-23.7-23.7h-15.7
			c-12.6,0-23.7,10.7-23.7,23.7v6.2c0,1.3-1,2.3-2.1,2.3c-1.3,0-2.3-1-2.3-2.3v-6.2c0-9.7,5.3-19.8,14.4-24.6l3.1-1.6l-2.9-1.8
			c-7.9-5.5-13-13.9-13-23.7v-6.2c0-1.3,1-2.3,2.3-2.3c1.1,0,2.3,1,2.3,2.3v6.2c0,13,10.7,23.7,23.7,23.7h12.3
			c13.1,0,23.7-11,23.7-23.7v-6.2c0-1.3,1-2.3,2.3-2.3c1.1,0,2.1,1,2.1,2.3v6.2c0,9.6-4.9,18.5-13,23.7l-2.8,1.8l2.9,1.6
			c8.8,4.9,14.6,14.6,14.6,24.6V414.6z"/>
		<path fill="#484848" d="M364.9,332.9c0,1.6-1.3,2.9-2.9,2.9c-1.6,0-2.9-1.3-2.9-2.9c0-1.6,1.3-2.9,2.9-2.9
			C363.6,330,364.9,331.3,364.9,332.9z M359.7,351.4c0-1.3,1-2.3,2.3-2.3c1.1,0,2.1,1,2.1,2.3v63.4c0,1.1-1,2.1-2.1,2.1
			c-1.3,0-2.3-1-2.3-2.1V351.4z"/>
		<path fill="#484848" d="M385.3,354c0-15.2,12.5-27.7,27.7-27.7h6.2c1.1,0,2.1,1,2.1,2.1c0,1.3-1,2.3-2.1,2.3H413
			c-12.8,0-23.3,10.4-23.3,23.3v33.7h27.9c1.3,0,2.3,1,2.3,2.3c0,1.1-1,2.1-2.3,2.1h-27.9v22.7c0,1.1-1,2.1-2.3,2.1
			c-1.1,0-2.1-1-2.1-2.1v-52.7V354z"/>
		<path fill="#484848" d="M493.1,420.7c0,14.9-12.6,27.6-27.6,27.6h-6.2c-1.1,0-2.1-1-2.1-2.1c0-1.3,1-2.3,2.1-2.3h6.2
			c12.6,0,23.2-10.5,23.2-23.2v-29.2l-3.7,3.7c-5.2,5.2-12.2,8.1-19.4,8.1c-14.9,0-27.6-12.6-27.6-27.6v-25.4c0-1.1,1-2.1,2.1-2.1
			c1.3,0,2.3,1,2.3,2.1v25.4c0,12.6,10.5,23.2,23.2,23.2c12.6,0,23.2-10.5,23.2-23.2v-25.6l0.2-0.2v-0.3l0.2-0.3l0.2-0.2l0.2-0.3
			l0.3-0.3l0.3-0.2l0.3-0.2h0.3h0.3h0.3h0.3l0.2,0.2l0.3,0.2l0.2,0.2l0.2,0.2l0.2,0.2l0.2,0.3l0.2,0.2l0.2,0.2v0.3v0.3V420.7z"/>
	</g>
	<g>
		<linearGradient id="SVGID_4_" gradientUnits="userSpaceOnUse" x1="330.6487" y1="25.7205" x2="156.1542" y2="195.0727">
			<stop  offset="0" style="stop-color:#EE2829"/>
			<stop  offset="0.211" style="stop-color:#BD3655"/>
			<stop  offset="0.446" style="stop-color:#8C3E79"/>
			<stop  offset="0.6122" style="stop-color:#6A4190"/>
			<stop  offset="0.6927" style="stop-color:#5A429A"/>
		</linearGradient>
		<path fill="url(#SVGID_4_)" d="M240,89.9c-16.6,0-32.9,4.6-47,13.3c-1.5,1-2,3-1.1,4.5c0.2,0.3,0.4,0.5,0.6,0.7
			c0.1,0.2,0.3,0.3,0.4,0.4l14.6,11.5c0.6,0.6,1.5,1,2.3,1c0.5,0,1-0.1,1.4-0.3c8.9-4.4,18.6-6.6,28.6-6.6c9.5,0,18.7,2,27.2,6
			c0.8,0.4,1.6,0.4,2.4,0.1c0,0,0,0,0,0c0.5-0.1,1-0.3,1.4-0.7l12.9-10.9c0.2,0.1,0.4,0.2,0.6,0.3c0,0.1,0,0.3,0,0.4
			c0,3.7,3,6.7,6.7,6.7c3.7,0,6.7-3,6.7-6.7c0-3.7-3-6.7-6.7-6.7c-1.1,0-2.2,0.3-3.1,0.8c-0.3-0.2-0.6-0.4-1-0.6
			c-0.5-0.3-1.1-0.6-1.9-1.1c0,0,0,0,0,0c-0.1-0.1-0.2-0.1-0.3-0.1c-0.2-0.1-0.4-0.2-0.6-0.2c-0.1,0-0.2-0.1-0.4-0.1
			c-0.1,0-0.3,0-0.4,0c-0.1,0-0.2,0-0.4,0c-0.2,0-0.3,0-0.5,0.1c-0.1,0-0.3,0.1-0.4,0.1c0,0,0,0,0,0c0,0,0,0,0,0c0,0-0.1,0-0.1,0
			c0,0-0.1,0-0.1,0c-0.1,0-0.1,0.1-0.2,0.1c-0.1,0.1-0.3,0.2-0.4,0.3l-0.2,0.2l-13.1,11h0c-8.9-3.8-18.4-5.8-28.2-5.8
			c-10.4,0-20.3,2.2-29.6,6.4l-9.9-7.8c12.1-6.5,25.6-10,39.5-10c9.1,0,18.1,1.5,26.6,4.4c0.6,0.2,1.1,0.2,1.7,0.1
			c0.6-0.1,1.3-0.3,1.8-0.8l13.5-11.8c4.7,2.4,11.8,6.6,16.1,9.5c0.6,0.4,1.2,0.6,1.8,0.6c0.7,0,1.5-0.2,2-0.7
			c0.1-0.1,0.3-0.2,0.4-0.3l27.7-22.1c0.8,0.3,1.6,0.5,2.5,0.5c3.7,0,6.7-3,6.7-6.7c0-3.7-3-6.7-6.7-6.7c-3.7,0-6.7,3-6.7,6.7
			c0,0.4,0,0.7,0.1,1.1l-26.2,20.9c-5.1-3.3-12.2-7.5-16.6-9.5c-0.2-0.1-0.4-0.1-0.5-0.2c0,0,0,0,0,0c-1.1-0.4-2.4-0.2-3.3,0.6
			l-13.8,12C258.3,91.3,249.2,89.9,240,89.9z M291.2,107.1c0.8,0,1.4,0.3,1.9,0.8c0.4,0.5,0.7,1.1,0.7,1.8c0,1.4-1.2,2.6-2.6,2.6
			h-0.1c-1.4,0-2.5-1.2-2.5-2.6C288.6,108.3,289.8,107.1,291.2,107.1z M334.2,66.5c1.4,0,2.6,1.2,2.6,2.6c0,1.4-1.2,2.6-2.6,2.6
			c-1.4,0-2.6-1.2-2.6-2.6C331.6,67.7,332.8,66.5,334.2,66.5z"/>
		<linearGradient id="SVGID_5_" gradientUnits="userSpaceOnUse" x1="306.6273" y1="0.9698" x2="132.1329" y2="170.322">
			<stop  offset="0" style="stop-color:#EE2829"/>
			<stop  offset="0.211" style="stop-color:#BD3655"/>
			<stop  offset="0.446" style="stop-color:#8C3E79"/>
			<stop  offset="0.6122" style="stop-color:#6A4190"/>
			<stop  offset="0.6927" style="stop-color:#5A429A"/>
		</linearGradient>
		<path fill="url(#SVGID_5_)" d="M165.9,112.7c3.7,0,6.7-3,6.7-6.7c0-0.5-0.1-1.1-0.2-1.6c18.5-16.8,42.3-26,67.5-26
			c4.8,0,9.7,0.3,14.4,1c0.9,2.6,3.4,4.4,6.3,4.4c3.7,0,6.7-3,6.7-6.7c0-3.7-3-6.7-6.7-6.7c-2.2,0-4.1,1-5.3,2.6
			c-5.1-0.7-10.2-1.1-15.4-1.1c-26.9,0-52.2,9.8-72,27.7c-0.7-0.2-1.4-0.3-2.1-0.3c-3.7,0-6.7,3-6.7,6.7
			C159.2,109.7,162.2,112.7,165.9,112.7z M260.7,74.5c1.4,0,2.6,1.2,2.6,2.6c0,1.4-1.2,2.6-2.6,2.6c-1.4,0-2.6-1.2-2.6-2.6
			C258.1,75.7,259.2,74.5,260.7,74.5z M165.9,103.4c1.4,0,2.6,1.2,2.6,2.6c0,1.4-1.2,2.6-2.6,2.6c-1.4,0-2.6-1.2-2.6-2.6
			C163.3,104.5,164.5,103.4,165.9,103.4z"/>
		<linearGradient id="SVGID_6_" gradientUnits="userSpaceOnUse" x1="333.511" y1="28.6697" x2="159.0165" y2="198.0219">
			<stop  offset="0" style="stop-color:#EE2829"/>
			<stop  offset="0.211" style="stop-color:#BD3655"/>
			<stop  offset="0.446" style="stop-color:#8C3E79"/>
			<stop  offset="0.6122" style="stop-color:#6A4190"/>
			<stop  offset="0.6927" style="stop-color:#5A429A"/>
		</linearGradient>
		<path fill="url(#SVGID_6_)" d="M150.7,184.4c0,0.2,0,0.3,0,0.5c0,1,0.1,1.8,0.2,2.5c0,0.1,0,0.3,0.1,0.5c0.3,2.8,0.7,5.6,1.2,8.4
			c0,0,0,0.1,0,0.1c0.4,1.5,3.7,15.2,6.1,20c0.6,1.2,1.7,1.8,2.9,1.8c0.5,0,1-0.1,1.5-0.3c1.6-0.8,2.3-2.8,1.5-4.4
			c-1.7-3.4-4.6-14.5-5.5-18.5c-0.5-2.5-0.9-5.1-1.1-7.7c0,0,0-0.1,0-0.1h11.1c1.8,0,3.3-1.5,3.3-3.3c0-1.8-1.5-3.3-3.3-3.3H154
			c-1.8,0-3.3,1.5-3.3,3.3L150.7,184.4z"/>
		<linearGradient id="SVGID_7_" gradientUnits="userSpaceOnUse" x1="334.2592" y1="29.4407" x2="159.7648" y2="198.7929">
			<stop  offset="0" style="stop-color:#EE2829"/>
			<stop  offset="0.211" style="stop-color:#BD3655"/>
			<stop  offset="0.446" style="stop-color:#8C3E79"/>
			<stop  offset="0.6122" style="stop-color:#6A4190"/>
			<stop  offset="0.6927" style="stop-color:#5A429A"/>
		</linearGradient>
		<path fill="url(#SVGID_7_)" d="M180.3,112.7c-3.7,0-6.7,3-6.7,6.7c0,3.7,3,6.7,6.7,6.7c0.9,0,1.8-0.2,2.6-0.5l22.6,17.9
			c0.6,0.5,1.3,0.7,2,0.7c0.4,0,0.8-0.1,1.2-0.2c0.1-0.1,0.3-0.1,0.4-0.2c0.1,0,0.1-0.1,0.2-0.1c0.1-0.1,0.2-0.1,0.4-0.2
			c0,0,0,0,0.1,0c8.4-7.1,19.2-11.1,30.3-11.1c11.7,0,21.3,3.4,29.5,10.5c0.8,0.7,1.8,0.9,2.7,0.7h0c0,0,0,0,0,0h0.1
			c0.7,0,1.4-0.2,2-0.7l46-36.7c0.8,0.3,1.6,0.5,2.5,0.5c3.7,0,6.7-3,6.7-6.7c0-3.7-3-6.7-6.7-6.7c-3.7,0-6.7,3-6.7,6.7
			c0,0.4,0,0.7,0.1,1.1L272,136.3c-9-7.1-19.5-10.5-32-10.5c-11.7,0-23.2,3.9-32.4,11L187,120.5c0-0.3,0.1-0.7,0.1-1.1
			C187,115.7,184,112.7,180.3,112.7z M180.3,122c-1.4,0-2.6-1.2-2.6-2.6c0-1.4,1.2-2.6,2.6-2.6c1.4,0,2.6,1.2,2.6,2.6
			C182.9,120.8,181.7,122,180.3,122z M322.9,97.3c1.4,0,2.6,1.2,2.6,2.6c0,1.4-1.2,2.6-2.6,2.6c-1.4,0-2.6-1.2-2.6-2.6
			C320.3,98.5,321.5,97.3,322.9,97.3z"/>
		<linearGradient id="SVGID_8_" gradientUnits="userSpaceOnUse" x1="372.7442" y1="69.0943" x2="198.2498" y2="238.4465">
			<stop  offset="0" style="stop-color:#EE2829"/>
			<stop  offset="0.211" style="stop-color:#BD3655"/>
			<stop  offset="0.446" style="stop-color:#8C3E79"/>
			<stop  offset="0.6122" style="stop-color:#6A4190"/>
			<stop  offset="0.6927" style="stop-color:#5A429A"/>
		</linearGradient>
		<path fill="url(#SVGID_8_)" d="M194.7,265.6c-1.5,0-2.9,0.5-4.1,1.4c-4.7-2.6-7.4-4.4-7.5-4.4c-6.3-4.3-12-9.3-17.2-14.8
			c0.2-0.6,0.3-1.3,0.3-2c0-3.7-3-6.7-6.7-6.7c-3.7,0-6.7,3-6.7,6.7c0,3.7,3,6.7,6.7,6.7c0.6,0,1.1-0.1,1.6-0.2
			c5.5,5.9,11.6,11.2,18.2,15.7c0.2,0.1,3.2,2.2,8.6,5.1c0.4,3.4,3.2,6,6.7,6c3.7,0,6.7-3,6.7-6.7
			C201.4,268.6,198.4,265.6,194.7,265.6z M159.5,248.3c-1.4,0-2.6-1.2-2.6-2.6c0-1.4,1.2-2.6,2.6-2.6c1.4,0,2.6,1.2,2.6,2.6
			C162.1,247.1,161,248.3,159.5,248.3z M194.7,274.9c-1.4,0-2.6-1.2-2.6-2.6c0-1.4,1.2-2.6,2.6-2.6c1.4,0,2.6,1.2,2.6,2.6
			C197.3,273.7,196.1,274.9,194.7,274.9z"/>
		<linearGradient id="SVGID_9_" gradientUnits="userSpaceOnUse" x1="372.2439" y1="68.5788" x2="197.7495" y2="237.931">
			<stop  offset="0" style="stop-color:#EE2829"/>
			<stop  offset="0.211" style="stop-color:#BD3655"/>
			<stop  offset="0.446" style="stop-color:#8C3E79"/>
			<stop  offset="0.6122" style="stop-color:#6A4190"/>
			<stop  offset="0.6927" style="stop-color:#5A429A"/>
		</linearGradient>
		<path fill="url(#SVGID_9_)" d="M344.1,171.2c-3.7,0-6.7,3-6.7,6.7c0,2.5,1.3,4.6,3.3,5.8c-2.4,53.5-46.6,96.3-100.7,96.3
			c-9.3,0-18.4-1.2-27.2-3.7l4.1-14.1c0,0,0-0.1,0-0.1c0-0.1,0-0.2,0.1-0.3c0,0,0-0.1,0-0.1c0-0.1,0-0.2,0-0.4c0-0.2,0-0.4-0.1-0.6
			c0-0.1,0-0.2-0.1-0.3c0,0,0-0.1,0-0.1c-0.1-0.3-0.2-0.5-0.4-0.7c0-0.1-0.1-0.1-0.2-0.2c-0.1-0.1-0.1-0.1-0.2-0.2
			c-0.1-0.1-0.1-0.1-0.2-0.2c-0.2-0.2-0.4-0.3-0.7-0.5c-0.1,0-0.2-0.1-0.2-0.1c-0.1,0-0.2-0.1-0.3-0.1c0,0-0.1,0-0.1,0s-0.1,0-0.1,0
			c0,0-0.1,0-0.1,0c-6.6-1.7-15.9-7.1-16-7.1c-6.4-3.7-12.4-8.3-17.6-13.7c-3.9-4-7.4-8.4-10.5-13c0,0,0,0-0.1-0.1
			c0-0.1-0.1-0.1-0.2-0.2c0,0-0.1-0.1-0.1-0.1c-0.1-0.1-0.2-0.2-0.2-0.2c-0.1-0.1-0.2-0.2-0.3-0.3c-0.1-0.1-0.2-0.1-0.3-0.2
			c-0.4-0.2-0.8-0.3-1.2-0.4c-0.1,0-0.2,0-0.4,0c-0.2,0-0.5,0-0.7,0.1c-0.1,0-0.2,0.1-0.3,0.1c-0.1,0-0.2,0.1-0.3,0.1l-13.7,6.4
			c-8.1-14.8-12.5-38.4-12.9-55.9H180l15.2,8.6c0.5,0.3,1.1,0.4,1.6,0.4h36.7c0.1,0,0.1,0,0.2,0c1.2,2.1,3.4,3.5,5.9,3.5
			c3.7,0,6.7-3,6.7-6.7c0-3.7-3-6.7-6.7-6.7c-2.5,0-4.7,1.4-5.9,3.5c-0.1,0-0.1,0-0.2,0h-35.9l-15.2-8.6c-0.5-0.3-1.1-0.4-1.6-0.4
			h-44.6c-1.8,0-3.3,1.5-3.3,3.3c0,0.1,0,0.2,0,0.3c0,0.1,0,0.2,0,0.3c0,18.9,4.7,47.1,15.1,64.1c0.2,0.4,0.6,0.7,1,1l0,0
			c0.6,0.6,1.4,1,2.3,1c0.5,0,0.9-0.1,1.4-0.3l13.7-6.4c2.9,4.2,6.1,8.1,9.7,11.7c5.7,5.8,12,10.7,19,14.7c0.4,0.2,7.7,4.5,14.5,6.9
			l-3.9,13.3c-0.1,0.4-0.2,0.8-0.1,1.2c0,0,0,0,0,0c-0.3,1.6,0.6,3.3,2.2,3.8c10.3,3.2,21.1,4.9,32.1,4.9
			c57.7,0,104.9-45.7,107.3-102.8c2.1-1.1,3.5-3.4,3.5-5.9C350.8,174.2,347.8,171.2,344.1,171.2z M239.6,176.6
			c1.4,0,2.6,1.2,2.6,2.6c0,1.4-1.2,2.6-2.6,2.6c-1.4,0-2.6-1.2-2.6-2.6C237,177.8,238.2,176.6,239.6,176.6z M344.1,180.6
			c-1.4,0-2.6-1.2-2.6-2.6c0-1.4,1.2-2.6,2.6-2.6c1.4,0,2.6,1.2,2.6,2.6C346.7,179.4,345.5,180.6,344.1,180.6z"/>
		<linearGradient id="SVGID_10_" gradientUnits="userSpaceOnUse" x1="401.5413" y1="98.7658" x2="227.0468" y2="268.1179">
			<stop  offset="0" style="stop-color:#EE2829"/>
			<stop  offset="0.211" style="stop-color:#BD3655"/>
			<stop  offset="0.446" style="stop-color:#8C3E79"/>
			<stop  offset="0.6122" style="stop-color:#6A4190"/>
			<stop  offset="0.6927" style="stop-color:#5A429A"/>
		</linearGradient>
		<path fill="url(#SVGID_10_)" d="M364.3,103.6c-3.7,0-6.7,3-6.7,6.7c0,0.4,0,0.7,0.1,1.1l-25.6,20.4c-1.2,0.9-1.5,2.5-1,3.8
			c0,0.1,0.1,0.2,0.1,0.2c0,0,0,0,0,0.1c2,4.6,4.7,12,6.2,17.4l-14.1,11.3c-0.4,0.3-0.6,0.6-0.8,1c0,0,0,0.1-0.1,0.1
			c-0.3,0.6-0.5,1.3-0.4,2.1c0.5,3.8,0.8,7.6,0.8,11.5c0,43.6-34,79.9-77.5,82.7c0,0-1.9,0.1-4.5,0l3.5-10.8v0
			c4.2-0.6,11.1-2.1,12-2.3c15.4-3.6,29.4-12.4,39.4-24.9c10.1-12.6,15.7-28.5,15.7-44.7c0-5.2-0.6-10.3-1.7-15.4l13.4-10.8
			c0.8-0.7,1.3-1.7,1.2-2.7v-0.1c0-0.4,0-0.7-0.2-1.1c-0.4-1.2-0.9-2.5-1.4-3.7c0.7-1.1,1.1-2.3,1.1-3.7c0-3.7-3-6.7-6.7-6.7
			c-3.7,0-6.7,3-6.7,6.7c0,3.6,2.9,6.6,6.5,6.7c0.1,0.3,0.2,0.6,0.3,0.9v0L304.2,160c-0.2,0.2-0.4,0.3-0.5,0.5c-0.7,0.8-1,1.9-0.8,3
			c1.3,5.1,1.9,10.4,1.9,15.8c0,30.3-20.6,56.3-50,63.2c-4,0.9-11,2.3-13.1,2.4h-0.1c0,0,0,0-0.1,0c-0.1,0-0.2,0-0.3,0
			c-0.1,0-0.2,0-0.3,0.1c-0.1,0-0.2,0-0.3,0.1c0,0,0,0,0,0c-0.1,0-0.2,0.1-0.3,0.1c-0.1,0-0.2,0.1-0.3,0.1c-0.1,0-0.2,0.1-0.3,0.2
			c-0.1,0.1-0.2,0.1-0.2,0.2c-0.1,0.1-0.1,0.1-0.2,0.2c-0.1,0.1-0.1,0.1-0.2,0.2c-0.1,0.1-0.1,0.2-0.2,0.3c-0.1,0.1-0.1,0.2-0.2,0.3
			c-0.1,0.2-0.2,0.3-0.2,0.5l0,0.1l-5.3,16.6l0,0.1c0,0.1,0,0.2-0.1,0.2c-0.1,0.3-0.1,0.5-0.1,0.7c0,0.1,0,0.2,0,0.3
			c0,0.1,0,0.2,0,0.3c0,0.1,0,0.2,0.1,0.3c0,0,0,0.1,0,0.1c0,0.1,0,0.1,0.1,0.2c0.2,0.5,0.5,1,1,1.3c0.1,0.1,0.1,0.1,0.2,0.2
			c0,0,0.1,0.1,0.1,0.1c0.1,0,0.1,0.1,0.2,0.1c0.2,0.1,0.3,0.1,0.5,0.2c0.1,0,0.2,0,0.3,0.1c0.1,0,0.2,0,0.3,0c0.1,0,0.2,0,0.3,0
			c2.5,0.4,4.9,0.5,6.7,0.5c1.7,0,2.8-0.1,2.9-0.1c46.9-3,83.6-42.2,83.6-89.2c0-3.5-0.2-7.1-0.6-10.6l14.3-11.5
			c0.8-0.7,1.3-1.7,1.2-2.7c0-0.3,0-0.6-0.1-0.9c-1.3-5.3-4-12.8-6.1-18.1l23.7-18.9c0.8,0.3,1.6,0.5,2.5,0.5c3.7,0,6.7-3,6.7-6.7
			C371,106.6,368,103.6,364.3,103.6z M317.1,144.4c-1.1,0-2.1-0.7-2.5-1.7c-0.1-0.3-0.2-0.6-0.2-0.9c0-1.4,1.2-2.6,2.6-2.6
			c0.3,0,0.6,0.1,0.9,0.2c1,0.4,1.7,1.3,1.7,2.5C319.8,143.3,318.6,144.4,317.1,144.4z M364.3,112.9c-1.4,0-2.6-1.2-2.6-2.6
			c0-1.4,1.2-2.6,2.6-2.6c1.4,0,2.6,1.2,2.6,2.6C366.9,111.7,365.8,112.9,364.3,112.9z"/>
		<linearGradient id="SVGID_11_" gradientUnits="userSpaceOnUse" x1="363.6852" y1="59.7602" x2="189.1908" y2="229.1124">
			<stop  offset="0" style="stop-color:#EE2829"/>
			<stop  offset="0.211" style="stop-color:#BD3655"/>
			<stop  offset="0.446" style="stop-color:#8C3E79"/>
			<stop  offset="0.6122" style="stop-color:#6A4190"/>
			<stop  offset="0.6927" style="stop-color:#5A429A"/>
		</linearGradient>
		<path fill="url(#SVGID_11_)" d="M233.8,198.9c1.2,2.1,3.4,3.5,5.9,3.5c3.7,0,6.7-3,6.7-6.7c0-3.7-3-6.7-6.7-6.7
			c-2.5,0-4.7,1.4-5.9,3.5c-0.1,0-0.1,0-0.2,0h-59.8c-0.1,0-0.3,0-0.4,0c-0.1,0-0.3,0-0.4,0.1c-0.1,0-0.2,0-0.3,0.1
			c-0.1,0-0.2,0.1-0.4,0.1c-0.1,0.1-0.3,0.1-0.4,0.2c-0.1,0.1-0.3,0.2-0.4,0.3c-0.1,0.1-0.1,0.1-0.2,0.2c-0.1,0.1-0.2,0.2-0.3,0.3
			c0,0-0.1,0.1-0.1,0.1c0,0-0.1,0.1-0.1,0.1c-0.1,0.1-0.1,0.2-0.2,0.3c0,0.1-0.1,0.1-0.1,0.2c0,0.1,0,0.1-0.1,0.2
			c-0.1,0.3-0.1,0.6-0.1,0.9c0,0.1,0,0.3,0,0.4c0,0,0,0.1,0,0.1c0,0.1,0,0.2,0.1,0.3c0,0.1,0,0.1,0,0.2c5.4,21.9,21,39.9,41.6,48.5
			c0.5,3.2,3.3,5.6,6.6,5.6c3.7,0,6.7-3,6.7-6.7c0-3.7-3-6.7-6.7-6.7c-1.7,0-3.2,0.6-4.4,1.7c-17.2-7.4-30.6-22.1-36.3-40h55.4
			C233.6,198.9,233.7,198.9,233.8,198.9z M239.6,193c1.4,0,2.6,1.2,2.6,2.6c0,1.4-1.2,2.6-2.6,2.6c-1.4,0-2.6-1.2-2.6-2.6
			C237,194.2,238.2,193,239.6,193z M218.8,241.4c1.4,0,2.6,1.2,2.6,2.6c0,1.4-1.2,2.6-2.6,2.6c-1.4,0-2.6-1.2-2.6-2.6
			C216.2,242.5,217.4,241.4,218.8,241.4z"/>
		<linearGradient id="SVGID_12_" gradientUnits="userSpaceOnUse" x1="379.8186" y1="76.3835" x2="205.3242" y2="245.7357">
			<stop  offset="0" style="stop-color:#EE2829"/>
			<stop  offset="0.211" style="stop-color:#BD3655"/>
			<stop  offset="0.446" style="stop-color:#8C3E79"/>
			<stop  offset="0.6122" style="stop-color:#6A4190"/>
			<stop  offset="0.6927" style="stop-color:#5A429A"/>
		</linearGradient>
		<path fill="url(#SVGID_12_)" d="M372.2,75.6c-3.7,0-6.7,3-6.7,6.7c0,0.4,0,0.7,0.1,1.1l-84.5,67.4c-1.4,1.1-1.6,3.1-0.6,4.6l0,0
			c0,0,0,0.1,0.1,0.2c4.1,7.1,6.3,15.5,6.3,23.7c0,25.9-21,46.9-46.9,46.9c-11.1,0-21.7-3.9-30.1-10.9h11.6v0h22.7
			c8.4,0,15.2-6.8,15.2-15.2v-11.8h0v-2.8c0-0.1,0-0.3,0-0.4c2.1-1.2,3.5-3.4,3.5-5.9c0-3.7-3-6.7-6.7-6.7c-3.7,0-6.7,3-6.7,6.7
			c0,2.5,1.4,4.7,3.5,5.9c0,0.1,0,0.2,0,0.4v5.6h0v9c0,4.7-3.9,8.6-8.6,8.6h-20.5v0h-20.6c-0.2,0-0.4,0-0.6,0c-0.9,0-2,0.1-2.8,0.8
			c-1.4,1.2-1.5,3.3-0.4,4.6c10.2,11.8,25,18.6,40.6,18.6c29.5,0,53.5-24,53.5-53.5c0-8.6-2.2-17.4-6.1-25.1l82.4-65.6
			c0.8,0.3,1.6,0.5,2.5,0.5c3.7,0,6.7-3,6.7-6.7C379,78.6,375.9,75.6,372.2,75.6z M256,176.6c1.4,0,2.6,1.2,2.6,2.6
			c0,1.4-1.2,2.6-2.6,2.6s-2.6-1.2-2.6-2.6C253.4,177.8,254.6,176.6,256,176.6z M372.2,85c-1.4,0-2.6-1.2-2.6-2.6
			c0-1.4,1.2-2.6,2.6-2.6c1.4,0,2.6,1.2,2.6,2.6C374.9,83.8,373.7,85,372.2,85z"/>
	</g>
</g>
</svg>
